<?xml version="1.0" encoding="UTF-8" standalone="no"?>
<svg
   xmlns:dc="http://purl.org/dc/elements/1.1/"
   xmlns:cc="http://creativecommons.org/ns#"
   xmlns:rdf="http://www.w3.org/1999/02/22-rdf-syntax-ns#"
   xmlns:svg="http://www.w3.org/2000/svg"
   xmlns="http://www.w3.org/2000/svg"
   xmlns:sodipodi="http://sodipodi.sourceforge.net/DTD/sodipodi-0.dtd"
   xmlns:inkscape="http://www.inkscape.org/namespaces/inkscape"
   width="240mm"
   height="120mm"
   viewBox="0 0 240 120"
   version="1.1"
   id="svg8"
   inkscape:version="1.0.1 (3bc2e813f5, 2020-09-07)"
   sodipodi:docname="ife-fixed-in-space.svg">
  <defs
     id="defs2">
    <marker
       id="marker-arrow-1.0616"
       orient="auto-start-reverse"
       refY="0"
       refX="0"
       markerHeight="1.6900001"
       markerWidth="0.91100001">
      <g
         transform="scale(1.3434313)"
         id="g36">
        <path
           d="M -1.55415,2.0722 C -1.42464,1.29512 0,0.1295 0.38852,0 0,-0.1295 -1.42464,-1.29512 -1.55415,-2.0722"
           style="fill:none;stroke:#000000;stroke-width:0.6;stroke-linecap:round;stroke-linejoin:round;stroke-miterlimit:10;stroke-dasharray:none;stroke-opacity:1"
           inkscape:connector-curvature="0"
           id="path34" />
      </g>
    </marker>
    <marker
       id="marker97"
       orient="auto-start-reverse"
       refY="0"
       refX="0"
       markerHeight="1.6900001"
       markerWidth="0.91100001">
      <g
         transform="scale(1.3434313)"
         id="g95">
        <path
           d="M -1.55415,2.0722 C -1.42464,1.29512 0,0.1295 0.38852,0 0,-0.1295 -1.42464,-1.29512 -1.55415,-2.0722"
           style="fill:none;stroke:#000000;stroke-width:0.6;stroke-linecap:round;stroke-linejoin:round;stroke-miterlimit:10;stroke-dasharray:none;stroke-opacity:1"
           inkscape:connector-curvature="0"
           id="path93" />
      </g>
    </marker>
    <marker
       id="marker103"
       orient="auto-start-reverse"
       refY="0"
       refX="0"
       markerHeight="1.6900001"
       markerWidth="0.91100001">
      <g
         transform="scale(1.3434313)"
         id="g101">
        <path
           d="M -1.55415,2.0722 C -1.42464,1.29512 0,0.1295 0.38852,0 0,-0.1295 -1.42464,-1.29512 -1.55415,-2.0722"
           style="fill:none;stroke:#000000;stroke-width:0.6;stroke-linecap:round;stroke-linejoin:round;stroke-miterlimit:10;stroke-dasharray:none;stroke-opacity:1"
           inkscape:connector-curvature="0"
           id="path99" />
      </g>
    </marker>
    <marker
       id="marker-arrow-0.5308"
       orient="auto-start-reverse"
       refY="0"
       refX="0"
       markerHeight="1.690"
       markerWidth="0.911">
      <g
         transform="scale(2.153529264004019)"
         id="g40">
        <path
           d="M -1.55415,2.0722 C -1.42464,1.29512 0,0.1295 0.38852,0 0,-0.1295 -1.42464,-1.29512 -1.55415,-2.0722"
           style="fill:none;stroke:#000000;stroke-width:0.6;stroke-linecap:round;stroke-linejoin:round;stroke-miterlimit:10;stroke-dasharray:none;stroke-opacity:1"
           inkscape:connector-curvature="0"
           id="path38" />
      </g>
    </marker>
    <clipPath
       clipPathUnits="userSpaceOnUse"
       id="clipPath878">
      <path
         id="path880"
         style="fill:#ff0000;fill-opacity:1;fill-rule:nonzero;stroke:none;stroke-width:0.264583"
         d="m 108.51792,221.51201 v 8.94674 h 11.39879 v -8.94674 z m 5.47047,2.18695 h 0.003 l 0.001,0.001 v 0.002 l -0.001,10e-4 c 0.13132,0.002 0.2547,0.0659 0.38188,0.0987 0.0148,0.0524 0.0359,0.10379 0.0553,0.15555 0.004,0.002 0.009,0.004 0.0129,0.005 0.15214,0.20216 0.18361,0.19659 0.18448,0.3886 0.006,0.004 0.006,0.007 0.0109,0.0119 0.11596,0.0685 0.22512,0.14827 0.33125,0.23255 -0.0113,0.007 -0.0279,0.0218 -0.0403,0.0305 0.009,0.003 0.0102,0.005 0.0233,0.009 0.0105,0.006 0.0208,0.0131 0.0315,0.0191 l 5.3e-4,5.3e-4 c 0.005,0.003 0.009,0.005 0.0134,0.008 -0.005,-0.009 -0.0121,-0.0183 -0.0114,-0.0279 -0.0103,-0.01 -0.019,-0.0188 -0.009,-0.0233 0.002,-0.001 0.005,-0.002 0.008,-0.003 -0.005,-0.004 -0.0103,-0.008 -0.0155,-0.0124 0.32687,-0.21562 0.18245,0.0709 0.2036,0.20515 h -5.2e-4 c -0.004,-0.005 -0.009,-0.008 -0.0129,-0.0124 -7.9e-4,0.0124 5.3e-4,0.0251 0,0.0377 l 0.007,0.007 c 0.002,-0.008 0.006,-0.0145 0.009,-0.0222 -5.3e-4,-0.003 -0.002,-0.005 -0.003,-0.008 l 0.004,0.004 5.3e-4,5.3e-4 c 0.004,-0.0129 0.007,-0.0268 0.015,-0.0372 0.006,-0.007 0.0138,-0.0108 0.0217,-0.015 h 5.3e-4 c 0.0145,-0.008 0.0301,-0.0134 0.0444,-0.0212 0.0248,0.0687 0.0152,0.0308 0.0212,0.14831 0.002,0.0368 0.002,0.0737 0.003,0.11059 0.0101,0.0174 0.0179,0.0349 0.0269,0.0522 0.0357,0.0618 0.0699,0.12447 0.10956,0.18397 -2.7e-4,5.3e-4 -8e-4,0.001 -10e-4,0.002 5.3e-4,7.9e-4 10e-4,0.002 0.002,0.003 0.004,0.005 0.0174,0.0125 0.0114,0.0155 -0.008,0.004 -0.0181,0.004 -0.0274,0.005 0.008,0.0182 0.0164,0.036 0.0243,0.0543 0.0133,0.0307 0.0254,0.062 0.0377,0.093 0.004,0.0118 0.0206,0.0253 0.0134,0.0357 v 5.3e-4 c 0.005,0.01 0.0335,0.0657 0.0393,0.0775 -1.7e-4,-0.006 -7.9e-4,-0.0112 -0.001,-0.0171 -0.0127,-0.0267 -0.0239,-0.0535 -0.0212,-0.0811 0.001,-0.0142 0.015,-0.0409 0.0269,-0.0331 0.006,0.004 0.013,0.0161 0.0202,0.0253 0.001,-0.001 0.003,-0.006 0.004,-0.004 0.003,0.004 0.003,0.01 0.005,0.0145 0.0136,0.021 0.0269,0.0461 0.0403,0.0744 2.7e-4,5.3e-4 7.9e-4,10e-4 0.001,0.002 0.0394,0.0535 0.077,0.14555 0.0822,0.15658 0.0338,0.0697 0.0662,0.13995 0.0997,0.20981 0.0593,0.12373 0.0768,0.15329 0.0961,0.19327 2.1e-4,2.7e-4 7.9e-4,5.3e-4 10e-4,0.001 0.0343,0.0623 0.0694,0.12279 0.11937,0.19844 0.0282,0.0426 0.059,0.0832 0.0904,0.1235 0.0185,0.0238 0.0393,0.0459 0.0589,0.0687 0.009,0.0104 0.0349,0.02 0.0269,0.031 -0.006,0.008 -0.0155,0.01 -0.0264,0.0103 -0.002,0.0106 -0.005,0.02 -0.0139,0.0248 -0.0124,0.007 -0.0194,-0.0204 -0.0284,-0.031 -0.009,-0.0106 -0.0181,-0.0215 -0.0274,-0.032 0.0134,0.0244 0.0272,0.0485 0.0403,0.0724 0.005,0.008 0.009,0.0159 0.0139,0.0238 0.0287,0.0339 0.0571,0.068 0.0853,0.10232 0.01,0.0134 0.0714,0.0828 0.0729,0.12712 0.0263,0.0262 0.056,0.0495 0.076,0.0806 0.0142,0.0222 0.0287,0.0502 0.0227,0.076 -0.002,0.007 -0.008,0.0105 -0.0165,0.0124 0.0115,0.0151 0.0226,0.0305 0.0305,0.047 0.0533,0.0274 0.0864,0.0912 0.10025,0.15296 0.018,0.009 0.0354,0.0191 0.0496,0.0367 0.007,-2.2e-4 0.0138,-0.002 0.0207,-0.003 0.027,0.0134 0.06,0.0188 0.0811,0.0403 0.0704,0.0716 0.10276,0.18241 0.11576,0.27751 0.001,0.0105 2.4e-4,0.0226 0.001,0.0336 0.009,0.0108 0.0173,0.0216 0.0259,0.0326 0.0259,0.0332 0.0456,0.0575 0.0625,0.0966 0.008,0.0174 0.0119,0.0362 0.0176,0.0543 0.0296,0.0352 0.0607,0.0685 0.0868,0.11007 0.002,0.003 0.003,0.006 0.005,0.009 -0.0617,-0.14315 -0.12458,-0.28601 -0.1819,-0.43097 l -10e-4,5.2e-4 c -0.0565,-0.14287 0.0129,-0.23 0.0951,-0.21962 0.0493,0.006 0.10343,0.0474 0.13797,0.13281 0.0608,0.15045 0.1255,0.29918 0.1912,0.44752 0.0202,0.0455 0.0403,0.0911 0.061,0.13642 0.0225,0.0485 0.0216,0.0684 0.0243,0.0744 -0.0696,0.007 -0.1399,0.008 -0.20826,0.0217 -0.0358,0.007 -0.002,0.0272 0.003,0.0269 0.0387,-0.003 0.0772,-0.009 0.11575,-0.0139 0.0101,-0.001 -0.0172,-0.006 -0.006,-0.007 0.0409,-0.007 0.0816,-0.022 0.12299,-0.0196 0.01,5.3e-4 0.011,0.0174 0.0119,0.0274 0.0125,0.13361 -0.0588,0.0783 -0.22375,0.11007 0.0147,0.0333 0.03,0.0662 0.0455,0.0992 0.008,0.017 0.0161,0.0338 0.0243,0.0506 0.004,0.005 0.008,0.0103 0.0114,0.0155 0.0403,0.0265 0.0681,0.0663 0.0946,0.10698 0.003,-5.3e-4 0.005,-0.001 0.008,-0.002 0.0152,-0.0112 0.0326,-0.0177 0.0501,-0.0243 0.003,-0.001 -0.005,0.001 -0.008,0.002 -0.003,0.001 -0.006,0.002 -0.009,0.004 0.006,-0.003 0.0126,-0.006 0.0186,-0.0103 0.002,-7.9e-4 -0.005,0.002 -0.004,0.001 0.0136,-0.0125 0.0371,-0.0212 0.0543,-0.0279 0.0209,-0.008 0.0404,-0.0141 0.0615,-0.0165 0.005,-0.002 0.01,-0.006 0.015,-0.007 0.006,-5.3e-4 0.0181,-0.005 0.0186,0.002 2.5e-4,0.004 -8e-4,0.003 -5.3e-4,0.007 0.002,5.3e-4 0.004,-8e-4 0.007,0 0.0208,0.007 0.0375,0.0224 0.0543,0.0372 0.008,-0.002 0.0164,-0.004 0.0248,-0.005 0.005,-0.003 0.0102,-0.006 0.0139,-0.009 7.9e-4,-1.4e-4 0.002,-2.2e-4 0.003,-5.3e-4 -0.002,0.002 -0.002,0.005 -0.004,0.008 0.001,-1e-4 0.002,-5.3e-4 0.003,-5.3e-4 -0.008,0.002 0.0136,-0.003 0.0109,-0.003 -0.0154,0.004 -0.015,0.004 -0.0145,0.005 -0.016,0.0257 -0.004,0.0747 0.005,0.0873 0.0116,0.0159 0.0383,0.01 0.0574,0.0145 0.009,0.002 2.7e-4,-0.005 0.009,-0.003 0.0193,0.005 0.0465,-5.3e-4 0.0579,0.016 0.002,0.002 0.002,0.008 0.004,0.0114 0.005,-2.6e-4 0.009,-5.3e-4 0.0139,-0.001 0.007,0.006 0.0121,0.0124 0.0191,0.0186 10e-4,0.001 10e-4,5.2e-4 0,0.002 -0.005,0.007 -0.009,0.0141 -0.0145,0.0212 -0.003,5.2e-4 -0.005,0.001 -0.008,0.002 2.7e-4,0.0189 -0.004,0.0375 -0.0176,0.0481 -0.004,0.003 -0.01,0.005 -0.015,0.007 -0.003,0.001 -0.009,0.003 -0.0134,0.005 0.004,-0.002 0.008,-0.004 0.0129,-0.006 -0.0191,0.006 -0.0189,0.0114 -0.046,0.0114 -0.005,-4e-5 -0.01,-0.001 -0.0145,-0.002 -0.004,5.3e-4 -0.007,0.003 -0.0103,0.003 -0.019,0.002 -0.0265,0.002 -0.0377,0.005 -0.006,0.001 -0.004,7.9e-4 -0.008,0.002 -0.007,0.004 -0.009,0.01 -0.0413,0.0269 -0.0183,0.004 -0.0363,0.009 -0.0548,0.0124 -0.0179,0.003 -0.0802,0.006 -0.0971,0.008 -0.0435,0.004 -0.0863,0.0134 -0.12919,0.0217 -0.005,0.001 -0.0101,0.004 -0.0155,0.005 -0.004,5.3e-4 -0.007,-5.3e-4 -0.0109,-5.3e-4 -0.0161,0.003 -0.0325,0.005 -0.0486,0.008 -0.01,0.002 -0.017,0.001 -0.0227,-0.002 -1.6e-4,4e-5 -2.6e-4,-5e-5 -5.3e-4,0 -0.0351,0.009 -0.0704,0.0183 -0.10593,0.0258 h -0.001 c -0.12284,0.0263 -0.18179,-0.0399 -0.15865,-0.10387 -0.0727,-0.0499 -0.0654,-0.13973 0.0104,-0.17725 -0.0109,-0.0115 -0.0228,-0.0222 -0.0331,-0.0341 -0.0173,0.0373 -0.0135,0.0187 -0.004,-0.004 -0.003,-0.004 -0.008,-0.007 -0.0114,-0.0114 -0.0464,-0.0574 -0.0825,-0.12393 -0.13281,-0.17725 0.001,-8e-4 0.002,-5.3e-4 0.003,-0.002 -0.009,-0.009 -0.0234,-0.0218 -0.0212,-0.0238 0.0133,-0.0127 0.0287,-0.0229 0.0429,-0.0346 -7.9e-4,-0.001 -0.001,-0.002 -0.002,-0.004 -0.0229,-0.0307 -0.0152,-0.0209 -0.0419,-0.0522 -0.0199,-0.0233 -0.0392,-0.0426 -0.0537,-0.0703 -0.0184,-0.0351 -0.0183,-0.045 -0.0243,-0.0796 -2e-5,-0.003 -10e-4,-0.006 -0.002,-0.008 -0.007,-0.0113 -0.0142,-0.0222 -0.0207,-0.0336 -0.006,-0.0102 -0.011,-0.0207 -0.0165,-0.031 -0.0219,0.002 -0.0436,0.002 -0.0636,-0.006 -0.11136,-0.0436 -0.18618,-0.17896 -0.19844,-0.29869 -0.0508,-0.0459 -0.0938,-0.10165 -0.10335,-0.15865 -0.01,-0.0568 0.003,-0.0894 0.0227,-0.12195 -0.002,0.001 -0.005,0.004 -0.007,0.003 -0.0203,-0.021 -0.0408,-0.044 -0.0512,-0.0713 -0.007,-0.0162 0.003,-0.0348 0.004,-0.0522 5.3e-4,-0.009 1.7e-4,-0.017 5.3e-4,-0.0258 -0.001,-0.008 -0.004,-0.0162 -0.005,-0.0243 0.002,-0.006 0.005,-0.0115 0.006,-0.0176 8e-5,-0.006 5.3e-4,-0.0116 5.3e-4,-0.0171 -9e-5,-0.003 1.1e-4,-0.006 0,-0.009 -0.0211,-0.0279 -0.0408,-0.0572 -0.0605,-0.0863 -5.3e-4,-1.3e-4 -0.001,1.5e-4 -0.002,0 -0.0503,-0.0168 -0.16984,-0.19716 -0.17002,-0.1974 -0.0502,-0.0796 -0.102,-0.15836 -0.15089,-0.23875 -0.0237,-0.039 -0.0466,-0.0793 -0.0698,-0.11885 -0.0401,-0.0517 -0.0791,-0.10154 -0.12712,-0.16847 -0.0232,-0.0324 -0.044,-0.0659 -0.0667,-0.0987 -0.0581,-0.0713 -0.11884,-0.14223 -0.16743,-0.20567 -0.008,-0.011 -0.18524,-0.23648 -0.20153,-0.30954 -0.007,-0.0297 0.002,-0.0397 0.0155,-0.0424 -2.6e-4,-0.002 -0.001,-0.003 -0.002,-0.005 -0.005,-0.0327 0.01,-0.0472 0.0315,-0.0481 -8e-4,-0.004 -0.005,-0.0102 -0.005,-0.0134 -2.6e-4,-0.005 0.005,-0.009 0.008,-0.0129 -0.002,-0.006 -0.004,-0.0168 -0.006,-0.0227 5.3e-4,0.007 5.3e-4,0.0148 0.001,0.0222 -0.008,-0.002 -0.0189,-0.003 -0.0279,-0.005 -0.006,0.002 -0.01,0.005 -0.015,0.007 -5.3e-4,-0.01 -5.3e-4,-0.0195 -0.002,-0.0289 -7.9e-4,-0.007 -0.002,-0.014 -10e-4,-0.0217 -0.005,-0.0702 -0.007,-0.14048 -0.0103,-0.21084 -0.002,-0.003 -0.006,-0.0109 -0.009,-0.016 -0.008,0.092 -0.0255,0.17985 -0.0806,0.2527 -0.0868,0.1146 -0.2886,-0.0196 -0.42685,-0.0589 -0.0369,-0.0105 -0.0819,-0.0529 -0.0863,-0.0713 -0.002,-0.001 -0.006,-0.008 5.3e-4,-0.008 -0.0719,-0.0108 -0.14344,-0.0221 -0.21032,-0.0491 -0.11842,-0.0478 -0.15663,-0.19639 -0.22221,-0.29042 -8e-4,-0.002 2.5e-4,-0.002 -5.3e-4,-0.004 -0.0802,-0.0433 -0.16284,-0.0815 -0.25115,-0.10284 -0.0703,-0.017 -0.13872,-0.0156 -0.20722,-0.007 -0.003,0.0116 -0.004,0.0245 -0.006,0.0367 0.002,0.007 0.003,0.0147 0.006,0.0207 -0.005,-9e-5 -0.01,5.3e-4 -0.015,5.3e-4 -5.3e-4,7.9e-4 -2.6e-4,0.002 -0.001,0.003 -0.0156,0.0134 -0.0416,0.003 -0.062,0.006 -0.0343,0.005 -0.0684,0.009 -0.10232,0.016 -0.0737,0.0156 -0.12099,0.0291 -0.18758,0.0615 -0.009,0.004 -0.0169,0.0105 -0.0253,0.015 0.008,7.9e-4 0.0165,0.002 0.0243,0.002 0.002,0 0.003,-5.2e-4 5.2e-4,0.002 -0.0187,0.0105 -0.0365,0.0237 -0.0553,0.0336 0.002,0.005 0.004,0.0104 0.004,0.0155 7.9e-4,0.0257 -0.002,0.0512 -0.002,0.077 0.0696,0.002 0.13913,0.004 0.20878,0.004 0.0103,-0.0131 0.0212,-0.0272 0.0331,-0.0398 -0.005,0.0152 -0.002,0.0289 0.009,0.0398 0.0188,-1e-4 0.037,5.3e-4 0.0558,5.3e-4 0.0274,-5.3e-4 0.10778,-0.0123 0.0827,-0.002 -0.0493,0.0197 -0.0634,0.0216 -0.0863,0.0279 0.24368,0.0827 1.11452,-0.003 0.66662,0.37207 -0.0366,0.0307 -0.073,0.0622 -0.11007,0.0925 -0.0115,0.0184 -0.0229,0.0353 -0.0579,0.0832 -0.0542,0.0528 -0.0977,0.12111 -0.16279,0.15968 -0.2369,0.14036 -0.54349,0.0621 -0.80046,0.0677 -0.0273,-0.002 -0.0545,0.002 -0.0806,-0.007 -0.01,-0.003 0.0375,-0.0125 0.0274,-0.0119 -0.0487,0.003 -0.0976,0.0268 -0.14573,0.0181 -0.30346,-0.0548 -0.4335,-0.19163 -0.45992,-0.49713 5.3e-4,-0.0296 -10e-4,-0.0697 0.002,-0.10387 -0.0114,0.007 -0.0156,0.0105 -0.0274,0.0176 -0.18063,0.11247 -0.36104,0.22536 -0.54157,0.33796 -0.3236,0.20139 -0.58823,0.14794 -0.70538,-0.004 -0.003,0.0111 -0.0146,0.0174 -0.0279,0.0243 0.004,0.0121 0.009,0.0239 0.0124,0.0362 10e-4,0.006 0.002,0.0105 0.004,0.016 0.001,0.006 0.003,0.012 0.004,0.0181 5.2e-4,0.005 0.004,0.0145 -5.3e-4,0.0145 -0.0145,-2.5e-4 -0.0272,-0.007 -0.0408,-0.0119 -2.4e-4,2.1e-4 -7.9e-4,6e-5 -10e-4,5.3e-4 -0.002,0.001 10e-4,0.008 10e-4,0.006 -5.3e-4,-0.002 -0.002,-0.005 -0.002,-0.007 -0.003,-0.001 -0.005,-0.002 -0.008,-0.003 -0.005,-0.0134 -0.0103,-0.0262 -0.0155,-0.0393 -0.005,0.002 -0.0106,0.003 -0.0155,0.004 -0.0175,0.005 -0.034,0.0104 -0.0522,0.0124 -0.002,5.2e-4 -0.003,5.2e-4 -0.005,0.002 2.4e-4,0.003 0.002,0.005 10e-4,0.008 -5.3e-4,0.001 -0.002,0.002 -0.003,0.003 v 5.3e-4 c 0.004,0.0139 5.3e-4,0.0228 -0.0222,0.015 -0.006,0.002 -0.0108,0.004 -0.016,0.005 -0.003,0.001 -5.3e-4,-0.007 -0.002,-0.0114 v -5.3e-4 c -0.002,-0.001 7.9e-4,-2.7e-4 -0.004,-0.001 -0.002,-10e-4 10e-4,-0.004 -0.002,-0.006 -0.0267,0.006 -0.053,0.0152 -0.0801,0.0191 0.004,0.008 0.008,0.0165 0.008,0.0243 -1.8e-4,0.0296 -0.0157,0.0408 -0.0455,0.0398 -0.003,-9e-5 -0.004,-0.002 -0.007,-0.004 1.4e-4,0.001 0.002,0.003 5.3e-4,0.004 -0.003,0.003 -0.005,0.002 -0.008,0.005 0.001,0.002 0.003,0.003 0.005,0.005 0.0235,0.0255 0.0249,0.0293 0.0305,0.0372 0.003,0.004 0.01,0.009 0.0155,0.0186 -0.0109,0.004 -0.0226,0.01 -0.0336,0.0124 l -0.003,0.006 c -0.001,-0.003 -0.001,-0.003 -0.002,-0.005 -0.003,2.5e-4 -0.006,0.002 -0.008,0.002 -0.0142,-0.004 -0.0216,-0.0179 -0.0305,-0.0305 -7.9e-4,8e-4 0.001,0.002 -0.002,0.003 -7.9e-4,7.9e-4 -2e-5,-0.002 -5.2e-4,-0.003 -0.002,8e-4 -0.004,0.002 -0.006,0.003 -0.003,-0.003 -0.006,-0.006 -0.009,-0.008 -0.0141,0.01 -0.0327,0.0122 -0.0491,0.0181 -0.003,-0.005 -0.005,-0.0132 -0.0104,-0.0181 -0.003,-0.002 -0.006,-0.003 -0.009,-0.006 -5.3e-4,2.6e-4 -5.3e-4,-1.3e-4 -0.002,5.3e-4 -2e-4,-2.3e-4 -0.007,-0.007 -0.0129,-0.0124 -0.003,-0.003 -0.007,-0.004 -0.0104,-0.007 8e-4,0.001 0.002,0.003 5.3e-4,0.003 -0.004,-7.9e-4 -0.007,-0.003 -0.0109,-0.005 0.0374,0.0276 0.0766,0.0605 0.078,0.0956 5.2e-4,0.006 -0.003,0.01 -0.006,0.0155 0.007,0.0164 0.0154,0.0323 0.0315,0.0398 0.002,0.001 0.005,-1.5e-4 0.008,5.3e-4 0.005,8e-4 0.0105,0.002 0.0155,0.004 2.7e-4,7e-5 8e-4,5.3e-4 10e-4,5.3e-4 2.6e-4,6e-5 5.3e-4,-2e-4 0.001,0 0.005,-0.004 0.0156,-0.004 0.0212,0.004 h 5.3e-4 c 0.003,0.004 0.003,0.005 0.009,0.0119 -0.002,0.006 -0.008,0.015 -0.0155,0.0367 0,2.1e-4 -0.008,-0.002 -0.0155,-0.005 -0.004,-0.001 -0.007,-0.002 -0.0119,-0.004 -0.0133,-0.003 -0.0314,-0.006 -0.0429,-0.0129 -0.003,-0.002 -0.003,-0.005 -0.006,-0.007 0.004,0.007 0.009,0.0122 0.0129,0.0191 -0.004,0.004 -1.4e-4,-5e-5 -0.004,0.003 2.6e-4,0.001 0.001,0.002 5.3e-4,0.003 -0.003,0.005 -0.009,0.008 -0.0134,0.0124 -7.9e-4,0.001 10e-4,2.6e-4 -0.001,0.001 -0.003,0.002 -0.007,0.003 -0.0103,0.005 l -5.3e-4,5.3e-4 c -0.002,8e-4 -0.003,0.002 -0.005,0.003 -0.0281,0.005 0.0713,-0.10132 -0.007,-0.008 -0.0337,-0.0704 -0.0935,-0.12332 -0.14211,-0.18293 -0.007,-0.0107 -0.0173,-0.0241 -0.0253,-0.0346 -0.006,-0.007 -0.012,-0.0146 -0.017,-0.0217 -0.009,-0.0121 -0.0146,-0.0265 -0.0227,-0.0393 -0.028,-0.0358 -0.0512,-0.0731 -0.0724,-0.11627 h 5.3e-4 c -0.004,-0.008 -0.004,-0.0134 -0.004,-0.0191 -0.0141,-0.01 -0.0297,-0.0193 -0.0393,-0.0248 h -5.3e-4 c -0.0209,-0.0123 -0.0173,-0.032 -0.002,-0.0336 0.005,-5.3e-4 0.0109,0.001 0.0176,0.006 0.013,0.009 0.0289,0.0162 0.0434,0.0248 7.9e-4,-1.8e-4 5.3e-4,-8e-4 0.002,-10e-4 -0.005,-0.006 -0.0102,-0.013 -0.0186,-0.0233 -0.002,-0.002 -0.008,-0.005 -0.006,-0.007 7.9e-4,-8e-4 -5.3e-4,-2.7e-4 0.002,-0.002 0.002,-0.006 0.0102,-0.0135 0.0248,-0.0217 0.003,-0.002 0.005,0.006 0.007,0.008 0.0175,0.0214 0.0249,0.0316 0.0336,0.0429 0.005,0.002 0.0102,0.006 0.015,0.0129 0.008,0.0125 0.0102,0.0184 0.016,0.0269 0.009,0.0103 0.0197,0.0195 0.0289,0.03 0.004,-0.0102 0.007,-0.0139 0.0104,-0.0181 -0.006,-0.008 -0.009,-0.0117 -0.0134,-0.0176 -0.0106,-0.009 -0.0215,-0.0199 -0.0305,-0.0279 -0.008,-0.007 -0.0283,-0.011 -0.0253,-0.0217 0.001,-0.005 0.006,-0.008 0.009,-0.0124 -0.0101,-0.0168 -0.01,-0.0346 0.0279,-0.0522 0.005,-0.002 0.009,0.004 0.0129,0.008 v -5.3e-4 c -0.003,-0.002 -0.005,-0.003 -0.008,-0.006 -0.005,-0.005 -0.018,-0.01 -0.015,-0.016 0.008,-0.0198 0.0155,-0.0293 0.0227,-0.031 0.004,-7.9e-4 0.006,0.004 0.01,0.006 5.3e-4,-5.3e-4 2.6e-4,1e-5 0.001,-5.3e-4 10e-4,-7.9e-4 2.7e-4,0.002 0.002,0.003 0.005,0.005 0.009,0.008 0.0129,0.016 0.0289,0.0313 0.0451,0.0444 0.0832,0.077 0.002,-2.6e-4 0.003,-5.3e-4 0.005,-0.002 0.0101,-0.001 0.0126,0.016 0.0186,0.0243 0.0168,-0.007 0.0319,-0.0141 0.0496,-0.0186 0.003,-7.9e-4 0.006,-2.6e-4 0.008,-0.002 -0.001,-0.003 -0.004,-0.005 -0.004,-0.008 -10e-4,-0.007 0.0111,-0.009 0.0181,-0.0124 0.0145,-0.007 0.0301,-0.0113 0.0455,-0.0155 0.0221,-0.006 0.0448,-0.007 0.0672,-0.0124 -0.003,-0.013 -0.006,-0.0218 -0.0119,-0.0491 -0.003,-0.0119 -0.0164,-0.0311 -0.007,-0.0362 0.0142,-0.006 0.0243,-0.006 0.0326,-0.003 0.005,-0.002 0.008,-0.005 0.0155,-0.006 0.012,-0.001 0.005,0.0228 0.007,0.0341 0.004,0.0189 0.005,0.0221 0.008,0.0331 0.001,0.006 0.004,0.0123 0.005,0.0165 0.007,-0.001 0.0121,-0.003 0.0186,-0.004 1e-4,-0.006 -5.3e-4,-0.0127 -5.3e-4,-0.0191 0,-0.0131 0.004,-0.0262 0.005,-0.0393 5.3e-4,-0.006 2.2e-4,-0.0127 5.3e-4,-0.0191 -0.004,-0.005 -0.007,-0.008 -0.003,-0.0124 0.003,-0.003 0.008,0.001 0.0119,-0.002 0.0101,-0.0103 0.0201,-0.0218 0.0336,-0.0222 0.0114,-2.7e-4 0.011,0.0207 0.016,0.0305 0.0121,0.0219 0.0232,0.0432 0.0351,0.0651 0.001,-1.9e-4 0.003,-1e-4 0.004,-5.3e-4 0.006,-0.004 0.007,-0.007 0.0207,-0.0124 0.003,-10e-4 0.003,0.005 0.004,0.009 0.005,-7.9e-4 0.01,-0.001 0.0145,-0.003 0.003,-7.9e-4 0.006,5.3e-4 0.009,-0.002 -0.0174,-0.16285 0.0799,-0.36489 0.34159,-0.52813 0.45856,-0.28602 0.91254,-0.5779 1.38286,-0.84336 7.9e-4,-5.3e-4 2.6e-4,-0.002 0.002,-0.002 0.002,-0.001 0.003,0.001 0.005,-0.002 0.11512,-0.0649 0.23025,-0.12913 0.34779,-0.19017 0.14297,-0.0742 0.59843,-0.31737 0.81855,-0.31316 z m -0.15348,0.25735 c -0.0129,0.006 -0.0286,0.033 -0.0372,0.047 -0.0157,0.0255 -0.0396,0.0541 -0.0434,0.0827 0.0231,-5e-5 0.0465,-0.002 0.0692,0 0.0484,0.004 0.0955,0.0121 0.14263,0.0202 -0.045,-0.0542 -0.0914,-0.10996 -0.11937,-0.14676 -0.003,-0.004 -0.008,-0.005 -0.0119,-0.003 z m -0.78083,0.19585 c -0.004,8e-5 -0.008,0.001 -0.0119,0.002 0.005,1e-5 0.0105,-1.1e-4 0.016,0 -0.002,-2.5e-4 -0.002,-0.002 -0.004,-0.002 z m 0.77566,0.11524 c -5e-5,-7.9e-4 -5.3e-4,0.002 -5.3e-4,0.002 1.9e-4,2.6e-4 8e-5,7.9e-4 5.3e-4,0.001 -6e-5,-0.002 6e-5,-0.002 0,-0.003 z m 1.22732,0.40049 c 0.005,0.0114 0.0105,0.0228 0.016,0.0341 0.002,0.003 0.003,0.006 0.005,0.009 0.003,0.002 0.007,0.004 0.0109,0.007 0.0263,0.0199 0.0482,0.0451 0.0703,0.0698 v -5.3e-4 c 8e-4,-0.0114 2.7e-4,-0.0237 10e-4,-0.0351 -0.0329,-0.0296 -0.0682,-0.0566 -0.10283,-0.0842 z m -0.0279,0.002 c -7.9e-4,0.005 -1.3e-4,0.008 -5.3e-4,0.0124 0.013,0.008 0.0262,0.0149 0.0388,0.0232 -0.007,-0.0102 -0.0193,-0.0217 -0.0382,-0.0357 z m 0.19896,0.14107 c -0.002,0.007 -0.005,0.0146 -0.008,0.0217 0.004,0.006 0.005,0.0133 0.008,0.0196 5.2e-4,-5.3e-4 -2e-5,-0.001 5.2e-4,-0.002 -1.9e-4,-0.0142 -5.2e-4,-0.0324 -5.2e-4,-0.0393 z m -1.59474,0.21079 c -0.0494,0.0363 -0.0989,0.0776 -0.14107,0.12299 0.0108,-0.0306 0.0524,-0.0697 0.14107,-0.12299 z m -2.64997,0.56793 -5.3e-4,0.001 5.3e-4,5.3e-4 c 3e-5,-3e-5 10e-6,-8e-4 0,-0.002 z m -5.3e-4,0.004 c -2.4e-4,7.9e-4 2e-5,-0.001 -5.3e-4,0.003 -9e-5,0.002 5.3e-4,0.003 5.3e-4,0.005 0.002,-2.3e-4 0.004,-7.9e-4 0.006,-10e-4 -0.002,-0.004 -0.004,-0.005 -0.006,-0.007 z m -0.35035,0.0894 c 7.9e-4,0.001 7.9e-4,0.002 0.003,0.004 2.5e-4,-5.3e-4 -1.2e-4,-0.002 5.3e-4,-0.002 -0.002,-2.6e-4 -0.002,0.001 -0.003,-0.002 z m 0.48059,0.0124 v 5.3e-4 c -2.1e-4,2e-5 0.004,-5.3e-4 0.004,-5.3e-4 -0.001,0 -0.002,-2e-5 -0.004,0 z m -0.34003,0.0274 c -0.005,0.001 -0.0101,0.002 -0.015,0.004 0.004,0.003 0.008,0.006 0.0124,0.008 5.3e-4,-7.9e-4 -2.6e-4,-0.002 5.3e-4,-0.003 2.6e-4,-0.003 -10e-4,-0.002 -5.3e-4,-0.005 2.1e-4,-0.001 0.002,-7.9e-4 0.003,-0.002 -1.8e-4,-8e-4 -5.3e-4,10e-4 -5.3e-4,-0.002 z m 0.0662,0.14211 c -0.002,0.004 -0.002,0.0117 0.002,0.0124 0.004,7.9e-4 0.001,-0.008 -0.001,-0.0124 h -5.2e-4 z m 4.87205,0.007 c 0.002,0.005 0.004,0.009 0.006,0.0139 0.002,0.002 0.003,0.005 0.005,0.007 -0.004,-0.008 -0.007,-0.014 -0.0109,-0.0212 z m -0.13591,0.16071 -5.3e-4,5.3e-4 v 5.3e-4 l 0.002,0.002 c 5.3e-4,7.9e-4 0.001,10e-4 0.002,0.002 -0.001,-0.001 -0.002,-0.003 -0.003,-0.005 z m -4.77077,0.0506 c -0.0103,-0.002 -0.029,0.011 -0.0171,0.0191 0.002,-0.003 0.002,-10e-4 0.004,-0.004 0.008,-0.01 0.01,-0.011 0.0129,-0.015 z m 0.0393,0.009 h 5.3e-4 c 6e-5,2.3e-4 0.001,0.002 0.001,0.002 z m 5.50715,0.7984 v 5.3e-4 c 8e-4,5.3e-4 10e-4,8e-4 0.002,0.001 -7.9e-4,-5.3e-4 -0.001,-7.9e-4 -0.002,-0.002 z m 0.003,0.003 c 0.005,0.004 0.0102,0.009 0.0155,0.0124 0.004,0.003 -0.006,-0.008 -0.0108,-0.01 -0.002,-0.002 -0.003,-0.002 -0.005,-0.003 z m -0.0331,0.39481 c -0.0145,0.02 -0.0262,0.0419 -0.0238,0.0698 1.1e-4,0.001 10e-4,0.002 0.002,0.004 0.0143,-0.019 0.0303,-0.0368 0.046,-0.0548 -0.007,-0.004 -0.0144,-0.0128 -0.0217,-0.0176 -7.9e-4,-8e-5 -0.001,-5.3e-4 -0.002,-5.3e-4 z m 0.27957,0.004 v 5.3e-4 5.3e-4 c -0.003,2.6e-4 -0.006,8e-4 -0.009,0.001 0.008,0.0141 0.012,0.0298 0.0186,0.0444 0.0143,0.0184 0.0283,0.0366 0.0429,0.0548 -0.0123,-0.0343 -0.027,-0.0686 -0.0475,-0.0971 -0.001,-0.002 -0.003,-0.002 -0.005,-0.004 z m -0.16175,0.33694 -10e-4,5.2e-4 c 0.0227,0.0505 0.0572,0.0962 0.0997,0.12868 10e-4,0.001 0.003,0.001 0.005,0.002 -0.003,-0.008 -0.007,-0.0139 -0.0119,-0.0279 -0.003,-0.01 -0.005,-0.0198 -0.008,-0.0294 -0.001,-0.002 -0.004,-0.006 -0.002,-0.006 0.002,-2.6e-4 0.003,-8e-4 0.006,-0.001 -0.0118,-0.0169 -0.0239,-0.0331 -0.0357,-0.0501 -0.015,-0.003 -0.0301,-0.005 -0.0439,-0.0114 -0.003,-0.001 -0.006,-0.003 -0.008,-0.005 z m 1.04645,0.69866 v 5.3e-4 c 7.9e-4,0.0351 -0.005,0.0408 -0.01,0.0424 0.003,3e-5 0.006,-7.9e-4 0.01,-5.3e-4 0.004,1.9e-4 0.009,8e-4 0.0129,0.002 0.0113,-0.003 0.0222,-0.006 0.0315,-0.009 0.004,-0.001 0.008,-9e-5 0.0114,-0.002 -0.0211,-0.0161 -0.0375,-0.0296 -0.0558,-0.0336 z m 0.17363,0.005 c 0.006,7.9e-4 0.022,0.003 0.016,0.003 -0.0158,-0.002 -0.022,1.6e-4 -0.0295,-5.3e-4 0.004,-7.9e-4 0.009,-0.001 0.0134,-0.002 z m -0.047,5.3e-4 c -0.003,0.001 -0.005,0.003 -0.008,0.004 0.004,-0.002 0.005,-0.002 0.008,-0.003 0.0155,-0.004 0.0247,-2.6e-4 0.0331,5.3e-4 l -0.0553,0.009 c 0.004,-0.003 0.009,-0.005 0.014,-0.007 -0.007,0.003 -0.0177,0.009 -0.0145,0.005 0.006,-0.006 0.0147,-0.006 0.0227,-0.009 z m -0.72606,0.016 c -1.8e-4,5.3e-4 -1.8e-4,0.002 -5.3e-4,0.002 5.3e-4,-2.6e-4 0.001,-2.6e-4 0.002,-5.3e-4 -5.3e-4,-2.5e-4 -5.3e-4,-7.9e-4 -0.001,-0.001 z m 0.60616,0.0243 c -0.01,0.004 -0.02,0.008 -0.0165,0.006 0.005,-0.003 0.0127,-0.004 0.0196,-0.006 -0.002,8e-4 -10e-4,-1.8e-4 -0.003,0 z m 0.21395,0.19069 c -2.7e-4,5.3e-4 -0.001,5.3e-4 -0.002,0.001 8e-5,1.2e-4 0.002,-7.9e-4 0.002,-5.2e-4 z m -0.002,0.001 c -5.3e-4,-7.9e-4 -0.006,0.003 -0.01,0.005 -0.0134,0.006 -0.0274,0.009 -0.0413,0.0129 0.0126,-0.002 0.0251,-0.005 0.0377,-0.007 0.005,-0.004 0.0101,-0.006 0.0134,-0.0103 z" />
    </clipPath>
    <clipPath
       clipPathUnits="userSpaceOnUse"
       id="clipPath1123">
      <path
         id="path1125"
         style="fill:#ff0000;fill-opacity:1;fill-rule:nonzero;stroke:none;stroke-width:0.264583"
         d="m 112.35283,224.48289 c -0.002,0.001 -0.004,0.002 -0.006,0.004 h 0.005 z m -0.006,0.004 v -5.3e-4 c -2.7e-4,2e-4 -8e-4,-1.1e-4 -10e-4,5.3e-4 z m -0.004,-0.002 c -0.001,5.3e-4 -0.002,0.001 -0.003,0.002 h 0.003 z m 0,0.002 h 0.002 l -0.001,-5.3e-4 c -2.6e-4,2e-4 -7.9e-4,1e-5 -10e-4,5.3e-4 z m -0.003,0 -5.32371,5.3e-4 v 8.94674 H 118.415 v -8.94674 h -3.58945 c 0.0482,0.0348 0.0959,0.0704 0.14263,0.10748 -0.0113,0.007 -0.0283,0.0213 -0.0408,0.03 0.009,0.003 0.0117,0.005 0.0248,0.009 0.0149,0.009 0.0282,0.0184 0.0434,0.0269 -0.005,-0.009 -0.0104,-0.0173 -0.0104,-0.0264 -0.0103,-0.01 -0.0226,-0.0188 -0.009,-0.0233 0.002,-0.002 0.006,-0.001 0.009,-0.003 -0.005,-0.004 -0.0106,-0.009 -0.016,-0.0134 0.3263,-0.21501 0.18245,0.071 0.20361,0.20515 l 0.004,0.004 c 2.7e-4,2.5e-4 8e-4,7.9e-4 0.001,10e-4 0.004,-0.012 0.006,-0.0254 0.014,-0.0351 0.006,-0.007 0.0138,-0.0108 0.0217,-0.015 h 5.3e-4 c 0.0145,-0.008 0.0296,-0.0134 0.0439,-0.0212 0.0248,0.0687 0.0152,0.0308 0.0212,0.14831 0.002,0.0368 0.002,0.0737 0.003,0.11059 0.0101,0.0174 0.0179,0.0349 0.0269,0.0522 0.0357,0.0618 0.0699,0.12446 0.10955,0.18397 -2.6e-4,5.3e-4 -7.9e-4,0.001 -0.001,0.002 5.3e-4,7.9e-4 0.001,0.002 0.002,0.003 0.004,0.005 0.0173,0.0125 0.0114,0.0155 -0.008,0.004 -0.0181,0.004 -0.0274,0.005 0.008,0.0182 0.0164,0.036 0.0243,0.0543 0.0133,0.0307 0.0254,0.062 0.0377,0.093 0.004,0.0118 0.0196,0.0263 0.0124,0.0367 v 0.001 c 0.005,0.01 0.034,0.0652 0.0398,0.077 -1.7e-4,-0.006 -9e-5,-0.0124 -5.2e-4,-0.0181 -0.0127,-0.0267 -0.0244,-0.053 -0.0217,-0.0806 0.001,-0.0142 0.0155,-0.0414 0.0274,-0.0336 0.006,0.004 0.013,0.0161 0.0202,0.0253 0.001,-0.001 0.003,-0.006 0.004,-0.004 0.003,0.004 0.003,0.01 0.005,0.0145 0.0136,0.021 0.0269,0.0461 0.0403,0.0744 2.6e-4,5.3e-4 1e-5,0.001 5.3e-4,0.002 0.0394,0.0535 0.0775,0.14554 0.0827,0.15658 0.0338,0.0697 0.0657,0.13994 0.0992,0.2098 0.0593,0.12373 0.0763,0.15329 0.0956,0.19327 l 0.001,5.3e-4 c 0.0343,0.0623 0.0694,0.12279 0.11938,0.19844 0.0282,0.0426 0.0585,0.0832 0.0899,0.1235 0.0185,0.0238 0.0393,0.0449 0.0589,0.0677 0.009,0.0104 0.0349,0.02 0.0269,0.031 -0.006,0.008 -0.0158,0.01 -0.0264,0.01 -0.002,0.0106 -0.005,0.0201 -0.0139,0.0248 -0.0124,0.007 -0.0184,-0.0204 -0.0274,-0.031 -0.009,-0.0106 -0.0186,-0.021 -0.0279,-0.0315 0.0134,0.0244 0.0272,0.05 0.0403,0.0734 0.005,0.008 0.009,0.0159 0.0134,0.0238 0.0287,0.0339 0.0571,0.068 0.0853,0.10232 0.01,0.0134 0.0724,0.0828 0.0739,0.12712 0.0263,0.0262 0.0564,0.0495 0.0765,0.0806 0.0142,0.0222 0.0282,0.0502 0.0222,0.076 -0.002,0.007 -0.008,0.0105 -0.016,0.0124 0.0117,0.0154 0.0226,0.0317 0.0305,0.0486 0.0528,0.0277 0.0855,0.0915 0.0992,0.15297 0.0178,0.009 0.0351,0.0188 0.0491,0.0362 0.007,-2.2e-4 0.0138,-0.002 0.0207,-0.003 0.027,0.0134 0.06,0.0188 0.0811,0.0403 0.0704,0.0716 0.10274,0.18242 0.11575,0.2775 10e-4,0.0105 -2.6e-4,0.0226 5.3e-4,0.0336 0.009,0.0108 0.0173,0.0217 0.0259,0.0326 0.0259,0.0332 0.0456,0.0575 0.0625,0.0966 0.008,0.0174 0.0119,0.0362 0.0176,0.0543 0.0296,0.0352 0.0607,0.0685 0.0868,0.11008 0.003,0.005 0.006,0.0111 0.009,0.0165 -0.0627,-0.14574 -0.12668,-0.29117 -0.18501,-0.43873 l -0.001,5.3e-4 c -0.0565,-0.14287 0.0129,-0.23001 0.0951,-0.21963 0.0493,0.006 0.10345,0.0473 0.13798,0.13281 0.0608,0.15045 0.1255,0.29918 0.1912,0.44752 0.0202,0.0455 0.0408,0.0911 0.0615,0.13642 0.0225,0.0485 0.0216,0.0689 0.0243,0.0749 -0.0696,0.007 -0.1399,0.008 -0.20825,0.0217 -0.0358,0.007 -0.002,0.0267 0.003,0.0264 0.0387,-0.003 0.0772,-0.009 0.11576,-0.0129 0.0101,-0.001 -0.0116,-0.006 -0.006,-0.007 0.0409,-0.007 0.0816,-0.022 0.12299,-0.0196 0.01,5.3e-4 0.0115,0.0174 0.0124,0.0274 0.0125,0.13391 -0.059,0.0779 -0.22479,0.11007 0.0147,0.0333 0.03,0.0662 0.0455,0.0992 0.008,0.017 0.0166,0.0339 0.0248,0.0506 0.004,0.005 0.008,0.0103 0.0114,0.0155 0.0403,0.0265 0.0681,0.0663 0.0946,0.10697 h 5.2e-4 c 0.003,-5.3e-4 0.005,-0.001 0.008,-0.002 0.0152,-0.0112 0.0321,-0.0177 0.0496,-0.0243 0.003,-0.001 -0.005,10e-4 -0.008,0.002 -0.003,0.001 -0.006,0.002 -0.009,0.004 0.006,-0.003 0.0126,-0.006 0.0186,-0.0109 0.002,-8e-4 -0.005,0.002 -0.004,5.3e-4 0.0136,-0.0125 0.0376,-0.0212 0.0548,-0.0279 0.0209,-0.008 0.0405,-0.0131 0.0615,-0.0155 0.005,-0.002 0.01,-0.006 0.015,-0.007 0.006,-5.3e-4 0.0181,-0.005 0.0186,0.002 2.5e-4,0.004 -7.9e-4,0.003 -5.3e-4,0.007 0.002,5.3e-4 0.004,-7.9e-4 0.007,0 0.0209,0.007 0.0382,0.022 0.0553,0.0367 0.008,-0.002 0.0164,-0.004 0.0248,-0.005 0.005,-0.003 0.01,-0.006 0.0134,-0.009 7.9e-4,-1.5e-4 0.002,-7.9e-4 0.003,-0.001 v 5.3e-4 h 5.3e-4 c 0.004,-0.003 0.009,-0.005 0.0129,-0.007 h 5.3e-4 c 0.003,-0.002 0.005,-0.002 0.008,-0.003 0.0158,-0.004 0.0251,2.6e-4 0.0336,0.001 0.004,-7.9e-4 0.009,-5.3e-4 0.0129,-0.002 l 5.3e-4,-0.001 5.3e-4,5.3e-4 c 0.006,7.9e-4 0.0226,0.003 0.0165,0.003 -0.0161,-0.002 -0.0229,2.7e-4 -0.0305,-5.3e-4 l -0.0553,0.009 c -0.002,0.002 -0.002,0.005 -0.004,0.008 10e-4,-1.1e-4 0.002,-5.3e-4 0.003,-5.3e-4 -0.008,0.002 0.0115,-0.003 0.0104,-0.003 -0.0154,0.004 -0.0155,0.004 -0.015,0.005 -0.016,0.0257 -0.004,0.0747 0.005,0.0873 0.0116,0.0159 0.0393,0.01 0.0584,0.0145 0.009,0.002 0.001,-0.005 0.009,-0.003 0.0193,0.005 0.0465,-5.3e-4 0.0579,0.016 0.002,0.003 0.002,0.008 0.004,0.0119 0.005,-2.6e-4 0.01,-0.001 0.015,-0.002 0.007,0.006 0.0121,0.0124 0.0191,0.0186 0.001,0.001 0.001,5.2e-4 0,0.002 -0.004,0.007 -0.009,0.0141 -0.015,0.0212 -0.003,5.2e-4 -0.006,0.001 -0.009,0.002 2.6e-4,0.0189 -0.004,0.0375 -0.017,0.0481 -0.004,0.003 -0.01,0.005 -0.015,0.007 -0.003,10e-4 -0.009,0.003 -0.0129,0.005 0.004,-0.002 0.008,-0.004 0.0129,-0.006 -0.0191,0.006 -0.0189,0.012 -0.046,0.0119 -0.005,-4e-5 -0.0105,-5.3e-4 -0.015,-0.002 -0.004,5.2e-4 -0.007,0.003 -0.0108,0.003 -0.019,0.002 -0.0265,0.002 -0.0377,0.005 -0.006,0.001 -0.003,7.9e-4 -0.007,0.002 -0.007,0.004 -0.009,0.01 -0.0419,0.0269 -0.0183,0.004 -0.0363,0.009 -0.0548,0.0124 -0.0179,0.003 -0.0798,0.006 -0.0966,0.008 -0.0453,0.004 -0.0897,0.0135 -0.13436,0.0222 -0.004,7.9e-4 -0.007,0.003 -0.0119,0.004 -0.003,5.3e-4 -0.005,-7.9e-4 -0.008,-5.3e-4 -0.0168,0.003 -0.0339,0.005 -0.0506,0.009 -0.0103,0.002 -0.018,0.001 -0.0238,-0.002 -0.0353,0.009 -0.0708,0.0182 -0.10646,0.0259 h -0.001 c -0.12376,0.0265 -0.18275,-0.041 -0.15813,-0.10542 -0.072,-0.05 -0.0644,-0.13919 0.0109,-0.17673 -0.011,-0.0115 -0.0227,-0.0222 -0.0331,-0.0341 -0.0173,0.0373 -0.01,0.0173 -0.004,-0.004 -0.003,-0.004 -0.008,-0.007 -0.0119,-0.0114 -0.0464,-0.0574 -0.0825,-0.12391 -0.13281,-0.17725 0.001,-8e-4 0.002,-0.001 0.003,-0.002 -0.009,-0.009 -0.0234,-0.0206 -0.0212,-0.0227 0.0133,-0.0127 0.0287,-0.0233 0.0429,-0.0351 -7.9e-4,-10e-4 10e-4,-0.002 -0.002,-0.004 -0.0229,-0.0307 -0.0158,-0.0209 -0.0424,-0.0522 -0.0199,-0.0233 -0.0386,-0.0426 -0.0532,-0.0703 -0.0184,-0.0351 -0.0183,-0.045 -0.0243,-0.0796 -1e-5,-0.003 -5.2e-4,-0.006 -0.002,-0.008 -0.007,-0.0113 -0.0147,-0.0227 -0.0212,-0.0341 -0.006,-0.0101 -0.0101,-0.0203 -0.0155,-0.0305 -0.0219,0.002 -0.0441,0.002 -0.0641,-0.006 -0.11137,-0.0436 -0.18619,-0.17898 -0.19844,-0.29869 -0.0508,-0.046 -0.0938,-0.10165 -0.10335,-0.15865 -0.009,-0.0565 0.002,-0.0891 0.0217,-0.12144 -0.002,0.001 -0.004,0.003 -0.006,0.002 -0.0203,-0.021 -0.0413,-0.044 -0.0517,-0.0713 -0.007,-0.0162 0.003,-0.0343 0.004,-0.0517 5.3e-4,-0.009 7.9e-4,-0.0178 0.001,-0.0264 -0.001,-0.008 -0.004,-0.0162 -0.005,-0.0243 0.002,-0.006 0.005,-0.0119 0.006,-0.0181 6e-5,-0.006 5.3e-4,-0.0109 5.3e-4,-0.0165 -1.2e-4,-0.004 1.3e-4,-0.007 0,-0.0114 -0.0207,-0.0275 -0.0396,-0.0552 -0.0589,-0.0837 -5.3e-4,-1.4e-4 -5.3e-4,1.4e-4 -0.002,0 -0.0503,-0.0168 -0.16982,-0.19714 -0.17001,-0.1974 -0.0502,-0.0796 -0.102,-0.15837 -0.1509,-0.23875 -0.0237,-0.039 -0.047,-0.0793 -0.0703,-0.11885 -0.0401,-0.0517 -0.0791,-0.10204 -0.12712,-0.16898 -0.0232,-0.0324 -0.044,-0.0659 -0.0667,-0.0987 -0.0581,-0.0713 -0.11885,-0.14222 -0.16743,-0.20567 -0.008,-0.011 -0.18521,-0.23648 -0.20154,-0.30954 -0.007,-0.0298 0.002,-0.0394 0.0155,-0.0424 -2.4e-4,-0.002 -5.3e-4,-0.003 -0.002,-0.005 -0.005,-0.0327 0.01,-0.0482 0.031,-0.0491 -8e-4,-0.004 -0.005,-0.01 -0.005,-0.0129 -2.6e-4,-0.005 0.005,-0.008 0.008,-0.0124 -0.002,-0.006 -0.004,-0.0168 -0.006,-0.0227 5.3e-4,0.007 -8e-5,0.0148 5.3e-4,0.0222 -0.008,-0.002 -0.0184,-0.003 -0.0274,-0.005 -0.006,0.002 -0.0105,0.005 -0.0155,0.007 -5.3e-4,-0.01 -2.7e-4,-0.019 -0.002,-0.0284 -8e-4,-0.007 -0.002,-0.0135 -5.3e-4,-0.0212 -0.005,-0.0702 -0.007,-0.14048 -0.0114,-0.21084 -0.002,-0.003 -0.006,-0.0103 -0.009,-0.0155 -0.008,0.0916 -0.0256,0.17906 -0.0806,0.25167 -0.0868,0.11459 -0.28859,-0.0191 -0.42684,-0.0584 -0.0369,-0.0105 -0.0819,-0.0524 -0.0863,-0.0708 -0.002,-0.001 -0.005,-0.008 5.3e-4,-0.008 -0.0719,-0.0109 -0.14292,-0.0221 -0.20981,-0.0491 -0.11841,-0.0478 -0.15662,-0.19642 -0.22221,-0.29042 -7.9e-4,-0.002 -2.6e-4,-0.002 -0.001,-0.004 -0.0803,-0.0433 -0.16272,-0.0815 -0.25115,-0.10283 -0.0722,-0.0175 -0.14248,-0.01 -0.2129,-0.006 0.002,-3e-5 0.004,8e-5 0.006,0 -0.003,0.0118 -0.004,0.0249 -0.006,0.0372 0.002,0.007 0.003,0.0152 0.006,0.0212 -0.005,-1e-4 -0.0105,5.3e-4 -0.0155,5.3e-4 -5.3e-4,7.9e-4 2.7e-4,0.002 -5.3e-4,0.003 -0.0156,0.0134 -0.0416,0.003 -0.062,0.006 -0.0343,0.005 -0.0684,0.009 -0.10232,0.016 -0.0737,0.0156 -0.12096,0.0291 -0.18758,0.0615 -0.009,0.004 -0.0169,0.0105 -0.0253,0.015 0.008,8e-4 0.016,0.002 0.0238,0.002 0.002,0 0.003,2.7e-4 5.3e-4,0.002 -0.0187,0.0105 -0.0365,0.0237 -0.0553,0.0336 0.002,0.005 0.004,0.009 0.004,0.0134 7.9e-4,0.0257 -0.002,0.0512 -0.002,0.077 0.0696,0.002 0.13915,0.004 0.20877,0.004 0.0103,-0.0131 0.0207,-0.0271 0.0326,-0.0398 -0.005,0.0152 -0.002,0.0289 0.009,0.0398 0.0188,-1.3e-4 0.0365,5.3e-4 0.0553,5.3e-4 0.0274,-5.3e-4 0.10841,-0.0123 0.0832,-0.002 -0.0493,0.0197 -0.0634,0.0211 -0.0863,0.0274 0.24369,0.0827 1.114,-0.003 0.66611,0.37207 -0.0366,0.0307 -0.073,0.0622 -0.11007,0.0925 -0.0115,0.0184 -0.0232,0.0353 -0.0584,0.0832 -0.0542,0.0528 -0.0977,0.12007 -0.16278,0.15865 -0.23695,0.14037 -0.54351,0.0621 -0.80047,0.0677 -0.0273,-0.002 -0.0566,0.002 -0.0827,-0.007 -0.01,-0.003 0.038,-0.0119 0.0279,-0.0114 -0.0487,0.003 -0.0981,0.0268 -0.14624,0.0181 -0.30348,-0.0548 -0.43352,-0.19166 -0.45992,-0.49713 5.2e-4,-0.0296 2.6e-4,-0.0697 0.002,-0.10387 -0.0113,0.007 -0.0161,0.01 -0.0279,0.0165 -0.18062,0.11244 -0.36105,0.22534 -0.54157,0.33796 -0.3237,0.20143 -0.58828,0.14833 -0.70539,-0.004 -0.003,0.0111 -0.0141,0.0174 -0.0274,0.0243 0.004,0.0121 0.01,0.0239 0.0129,0.0362 10e-4,0.006 0.002,0.0105 0.004,0.016 0.001,0.006 0.003,0.012 0.004,0.0181 5.3e-4,0.005 0.003,0.0146 -0.001,0.0145 -0.0145,-2.6e-4 -0.0262,-0.007 -0.0398,-0.0119 l -10e-4,5.3e-4 c -0.002,0.001 10e-4,0.008 10e-4,0.006 -5.3e-4,-0.002 -0.002,-0.005 -0.002,-0.007 -0.003,-0.001 -0.005,-0.002 -0.008,-0.003 -0.005,-0.0134 -0.0133,-0.0271 -0.0186,-0.0403 -0.005,0.002 -0.0106,0.003 -0.0155,0.004 -0.0175,0.005 -0.034,0.0109 -0.0522,0.0129 -0.002,5.3e-4 -0.003,-5.2e-4 -0.005,0.002 2.6e-4,0.003 0.002,0.005 0.001,0.008 -5.3e-4,0.001 -0.002,0.002 -0.003,0.003 v 5.3e-4 c 0.004,0.0139 5.3e-4,0.021 -0.0222,0.0129 -0.006,0.002 -0.0102,0.004 -0.0155,0.005 -0.003,0.001 -2.7e-4,-0.007 -0.002,-0.0108 -5e-5,-2.6e-4 8e-5,-7.9e-4 0,-0.001 -0.002,-0.001 0.001,2.7e-4 -0.004,-5.3e-4 -0.002,-0.001 -2.7e-4,-0.004 -0.002,-0.006 -0.0267,0.006 -0.053,0.0154 -0.0801,0.0191 0.004,0.008 0.008,0.0165 0.008,0.0243 -1.8e-4,0.0296 -0.0157,0.0408 -0.0455,0.0398 -0.003,-9e-5 -0.004,-0.002 -0.007,-0.004 1.5e-4,0.001 0.002,0.003 0.001,0.004 -0.004,0.003 -0.006,0.003 -0.009,0.005 0.002,0.002 0.003,0.003 0.005,0.006 0.0235,0.0255 0.0244,0.0293 0.03,0.0372 0.003,0.004 0.01,0.009 0.0155,0.0186 -0.0109,0.004 -0.0221,0.01 -0.0331,0.0124 l -0.003,0.006 c -10e-4,-0.003 -2.6e-4,-0.003 -0.002,-0.005 -0.003,2.4e-4 -0.006,0.002 -0.008,0.002 -0.0142,-0.004 -0.0221,-0.0184 -0.031,-0.031 -7.9e-4,7.9e-4 8e-4,0.002 -0.002,0.003 -8e-4,8e-4 -5.3e-4,-0.002 -0.001,-0.003 -0.002,7.9e-4 -0.004,0.002 -0.006,0.003 l -0.009,-0.009 c -0.014,0.009 -0.0326,0.0126 -0.0486,0.0181 -0.003,-0.005 -0.005,-0.0132 -0.0119,-0.0181 -0.003,-0.002 -0.006,-0.003 -0.009,-0.006 -5.3e-4,2.6e-4 10e-4,2.7e-4 -0.002,0.001 -2.3e-4,-2.3e-4 -0.007,-0.007 -0.0129,-0.0124 -0.003,-0.003 -0.007,-0.004 -0.0119,-0.007 7.9e-4,0.001 0.002,0.003 5.3e-4,0.003 -0.004,-0.001 -0.007,-0.004 -0.0108,-0.006 0.0375,0.0276 0.0762,0.0603 0.0775,0.0956 5.3e-4,0.006 -0.004,0.01 -0.006,0.0155 0.007,0.0161 0.0156,0.0304 0.0315,0.0377 0.002,0.001 0.005,5.3e-4 0.008,0.001 0.005,8e-4 0.0105,0.002 0.0155,0.004 5.3e-4,1.5e-4 5.3e-4,9e-5 0.002,5.3e-4 0.005,-0.005 0.0156,-0.004 0.0212,0.004 h 0.001 c 0.003,0.004 0.003,0.005 0.009,0.0103 -0.002,0.006 -0.007,0.0155 -0.015,0.0372 0,2e-4 -0.008,-0.002 -0.0155,-0.005 -0.004,-0.001 -0.008,-0.002 -0.0124,-0.004 -0.0133,-0.003 -0.0317,-0.006 -0.0434,-0.0124 0.003,0.004 0.006,0.008 0.008,0.0124 -0.004,0.004 -10e-4,-7.9e-4 -0.004,0.003 2.5e-4,0.001 10e-4,0.002 5.3e-4,0.003 -0.003,0.005 -0.008,0.008 -0.0124,0.0124 -7.9e-4,0.001 0.002,2.7e-4 -5.3e-4,0.001 -0.003,0.002 -0.007,0.003 -0.01,0.005 l -0.001,5.3e-4 c -0.002,7.9e-4 -0.003,0.002 -0.005,0.003 -0.0281,0.005 0.0694,-0.0966 -0.007,-0.008 -0.0337,-0.0704 -0.0935,-0.12333 -0.14211,-0.18293 -0.007,-0.0107 -0.0168,-0.0253 -0.0248,-0.0362 -0.005,-0.007 -0.0131,-0.0146 -0.0181,-0.0217 -0.009,-0.0119 -0.0137,-0.0273 -0.0217,-0.0398 -0.0285,-0.0361 -0.0529,-0.0736 -0.0739,-0.11731 h 5.3e-4 c -0.004,-0.008 -0.004,-0.0128 -0.004,-0.0186 -0.0139,-0.009 -0.028,-0.0193 -0.0372,-0.0248 h -5.3e-4 c -0.0209,-0.0123 -0.0182,-0.032 -0.002,-0.0336 0.005,-5.3e-4 0.0119,-0.001 0.0186,0.006 0.0128,0.009 0.0286,0.0164 0.0429,0.0248 5.3e-4,-1.4e-4 -6e-5,-3e-5 0.002,-5.3e-4 -0.005,-0.006 -0.0102,-0.0127 -0.0186,-0.0227 -0.002,-0.002 -0.008,-0.005 -0.006,-0.007 l 0.002,-0.002 c 0.002,-0.006 0.0107,-0.0135 0.0253,-0.0217 0.003,-0.002 0.005,0.006 0.007,0.008 0.0132,0.016 0.0194,0.0246 0.0248,0.0315 0.001,0.002 0.004,0.005 0.006,0.007 0.006,0.002 0.0125,0.007 0.0181,0.0155 0.008,0.0119 0.01,0.0165 0.0155,0.0248 0.01,0.0107 0.0209,0.0201 0.0305,0.031 0.003,-0.01 0.007,-0.0129 0.0108,-0.017 -0.006,-0.007 -0.008,-0.0102 -0.0129,-0.0165 -0.0105,-0.009 -0.022,-0.0199 -0.031,-0.0279 -0.008,-0.007 -0.0278,-0.0115 -0.0248,-0.0222 10e-4,-0.005 0.006,-0.008 0.009,-0.0124 -0.0101,-0.0168 -0.01,-0.0346 0.0279,-0.0522 0.005,-0.002 0.008,0.004 0.0124,0.008 v -5.2e-4 c -0.003,-0.002 -0.005,-0.003 -0.008,-0.006 -0.005,-0.005 -0.018,-0.01 -0.015,-0.016 0.008,-0.0198 0.0148,-0.0288 0.0222,-0.0305 0.003,-7.9e-4 0.007,0.004 0.0103,0.006 l 0.001,-0.001 c 0.001,-8e-4 5.3e-4,0.002 0.002,0.003 0.005,0.005 0.008,0.008 0.0124,0.016 0.0286,0.0309 0.0461,0.0448 0.0832,0.0765 0.003,-5.3e-4 0.003,-0.002 0.007,-0.002 0.0101,-0.001 0.0126,0.016 0.0186,0.0243 0.0168,-0.007 0.0314,-0.0136 0.0491,-0.0181 0.003,-7.9e-4 0.006,0.001 0.008,-0.002 -0.001,-0.003 -0.004,-0.005 -0.004,-0.008 -0.001,-0.007 0.0105,-0.01 0.0176,-0.0124 0.0145,-0.007 0.0307,-0.0113 0.046,-0.0155 0.0221,-0.006 0.0453,-0.007 0.0677,-0.0119 -0.003,-0.013 -0.007,-0.0223 -0.0124,-0.0496 -0.003,-0.012 -0.0159,-0.0316 -0.007,-0.0367 0.0142,-0.006 0.0253,-0.006 0.0336,-0.003 0.005,-0.002 0.007,-0.005 0.015,-0.006 0.012,-0.001 0.005,0.0228 0.007,0.0341 0.004,0.0189 0.005,0.0226 0.008,0.0336 0.001,0.006 0.004,0.0112 0.005,0.0155 0.007,-0.001 0.0122,-0.003 0.0186,-0.004 1e-4,-0.006 -5.3e-4,-0.0127 -5.3e-4,-0.0191 0,-0.0131 0.004,-0.0262 0.005,-0.0393 5.3e-4,-0.006 5.3e-4,-0.0127 0.001,-0.0191 -0.004,-0.005 -0.007,-0.009 -0.003,-0.0129 0.003,-0.003 0.008,5.3e-4 0.0119,-0.002 0.0101,-0.0103 0.0201,-0.0218 0.0336,-0.0222 0.0114,-2.5e-4 0.011,0.0208 0.016,0.0305 0.0121,0.0219 0.0242,0.0432 0.0362,0.0651 10e-4,-2.1e-4 0.003,1.2e-4 0.004,-5.3e-4 0.006,-0.004 0.008,-0.007 0.0217,-0.0124 0.003,-0.001 0.003,0.005 0.004,0.009 0.005,-7.9e-4 0.0105,-2.6e-4 0.015,-0.003 0.003,-7.9e-4 0.006,-2.7e-4 0.0114,-0.003 -0.0172,-0.16274 0.0796,-0.36403 0.34106,-0.52709 0.30092,-0.18769 0.60141,-0.37512 0.90434,-0.55863 z m 2.71663,0.17828 -0.001,5.3e-4 c 0.006,0.0121 0.0122,0.0242 0.0181,0.0362 0.001,0.002 0.002,0.005 0.004,0.007 0.004,0.003 0.008,0.004 0.0124,0.007 0.0262,0.0198 0.0488,0.0451 0.0708,0.0698 7.9e-4,-0.0114 2.6e-4,-0.0236 0.001,-0.0351 -0.0333,-0.03 -0.0697,-0.0572 -0.1049,-0.0853 z m -0.0279,0.005 c -2.6e-4,0.005 2.3e-4,0.007 0,0.0108 0.0114,0.007 0.0231,0.0135 0.0341,0.0207 -0.008,-0.009 -0.0174,-0.0192 -0.0341,-0.0315 z m 0.12971,0.11679 c -8e-4,0.0129 5.3e-4,0.0272 0,0.0403 l 0.007,0.007 c 0.002,-0.009 0.007,-0.0159 0.0103,-0.0243 -7.9e-4,-0.003 -0.003,-0.006 -0.003,-0.009 -0.004,-0.005 -0.008,-0.009 -0.0124,-0.0134 z m 0.0698,0.0232 v 0.001 l 5.3e-4,-5.3e-4 z m 0,0.001 c -0.002,0.007 -0.005,0.0146 -0.008,0.0217 0.004,0.006 0.005,0.0128 0.008,0.0191 5.3e-4,-5.3e-4 -2.3e-4,-2.7e-4 5.3e-4,-0.002 -2.3e-4,-0.0138 -5.3e-4,-0.0315 -5.3e-4,-0.0388 z m -1.59525,0.21081 c -0.0494,0.0363 -0.0984,0.0776 -0.14056,0.12299 0.0108,-0.0306 0.0519,-0.0697 0.14056,-0.12299 z m -2.64997,0.57878 c -1.1e-4,0.002 -2.7e-4,0.003 -5.3e-4,0.006 -9e-5,0.002 5.3e-4,0.003 5.3e-4,0.005 0.002,-2.3e-4 0.004,1e-5 0.006,-5.3e-4 -0.002,-0.004 -0.004,-0.007 -0.006,-0.01 z m -0.3545,0.0806 c 2.6e-4,5.3e-4 -2.7e-4,5.3e-4 5.3e-4,0.002 l 0.004,0.004 c 2.7e-4,-5.3e-4 8e-4,0.001 0.001,-0.002 -0.002,-0.001 -0.003,-0.003 -0.005,-0.004 z m 0.4842,0.0134 v 5.3e-4 c -2.1e-4,1e-5 0.004,-5.3e-4 0.004,-5.3e-4 -0.001,0 -0.002,-1e-5 -0.004,0 z m -0.34054,0.03 c -0.005,0.001 -0.01,0.002 -0.0145,0.004 0.004,0.003 0.008,0.006 0.0124,0.008 5.3e-4,-7.9e-4 -2.6e-4,-0.002 5.3e-4,-0.003 2.6e-4,-0.003 -10e-4,-0.002 -5.3e-4,-0.005 2.2e-4,-0.001 0.002,-7.9e-4 0.003,-0.002 -1.7e-4,-8e-4 -5.3e-4,-5.3e-4 -5.3e-4,-0.002 z m -0.60307,0.063 c 0.0219,0.005 0.0403,0.0195 0.0605,0.03 0.002,-10e-4 0.003,-0.004 0.006,-0.005 h 5.3e-4 c 0.008,1.8e-4 0.0182,0.004 0.0305,0.0145 0.0159,0.0135 0.12949,0.0769 0.10439,0.11886 -10e-4,0.002 -0.005,0.003 -0.006,0.005 0.0118,0.013 0.0292,0.0235 0.0367,0.0393 0.005,0.0111 0.009,0.023 0.0134,0.0346 2.3e-4,0.004 1.5e-4,0.009 5.3e-4,0.0129 0.005,0.10081 -0.079,-0.0162 -0.11937,-0.0346 -0.002,0.002 7.9e-4,0.003 -0.004,0.005 -0.005,-4e-5 -0.009,1.3e-4 -0.0139,0 7e-5,-2.2e-4 -9e-5,-7.9e-4 0,-0.001 -5.3e-4,2.4e-4 -0.001,7.9e-4 -0.002,0.001 5.3e-4,1e-5 0.001,2.1e-4 0.002,5.3e-4 -0.002,0.006 -0.003,0.0151 -0.002,0.0305 2.2e-4,0.002 1.7e-4,0.004 5.3e-4,0.006 0.023,0.0534 0.0117,0.0264 -0.008,0.008 -0.003,-0.003 -0.005,-0.006 -0.008,-0.009 -0.006,0.0146 -0.0127,0.0292 -0.0233,0.0408 -0.006,0.007 -0.0147,0.012 -0.0217,0.0181 -0.0251,0.015 -0.0481,0.0283 -0.0806,0.0294 -0.007,2.4e-4 -0.0142,-0.001 -0.0212,-0.002 -0.005,0.002 -0.0104,0.004 -0.0155,0.006 -0.002,-0.002 -0.003,-0.006 -0.004,-0.008 -0.007,-10e-4 -0.0138,-10e-4 -0.0207,-0.002 -0.0167,-0.003 -0.0318,-0.0105 -0.0475,-0.016 -0.0296,0.0539 -0.0714,0.098 -0.12299,0.13229 -0.0269,0.0118 -0.0447,0.0221 -0.0739,0.0253 -0.0498,0.005 -0.10467,-0.002 -0.15348,-0.0114 -0.007,-0.002 -0.0131,-0.004 -0.0196,-0.005 -0.0132,0.002 -0.0264,0.004 -0.0398,0.005 -0.002,2.6e-4 -0.005,-8e-4 -0.007,0 -0.0207,0.008 -0.0378,0.0229 -0.0594,0.0284 -0.0448,0.0162 -0.0525,0.021 -0.1018,0.03 -0.0525,0.01 -0.10756,0.006 -0.15916,0.0222 -0.0559,0.007 -0.11228,0.011 -0.16847,0.0155 0.0676,0.0719 -0.004,0.15866 -0.10697,0.0915 -0.007,-0.004 -0.0126,-0.009 -0.0196,-0.0129 -0.0336,-0.0248 -0.0755,-0.054 -0.0894,-0.092 -0.0311,0.0219 -0.0616,0.0447 -0.093,0.0661 -0.0282,0.017 -0.0551,0.0358 -0.0842,0.0512 -0.0782,0.0412 -0.15623,0.065 -0.24133,0.092 -0.2184,0.0693 -0.44001,0.12829 -0.65784,0.19947 -0.061,0.0199 -0.0999,-9e-5 -0.1142,-0.0289 -0.0128,0.0113 -0.0258,0.0225 -0.0388,0.0336 -0.0687,0.0592 -0.13012,0.035 -0.13591,-0.0145 -0.0319,0.009 -0.0593,7.9e-4 -0.0729,-0.0196 -10e-4,0.003 -0.002,0.007 -0.004,0.0103 h 5.3e-4 c -0.0538,0.12746 -0.18197,0.0802 -0.13126,-0.0486 0.0158,-0.0401 0.0275,-0.082 0.0475,-0.12041 0.002,-0.005 0.003,-0.0121 0.008,-0.0139 0.0308,-0.0103 0.0689,-0.003 0.0956,-0.0212 0.0172,-0.0119 -0.0406,-5.3e-4 -0.0615,-0.002 -0.0348,0.0405 -0.005,-0.0205 5.3e-4,-0.0217 0.0347,-0.007 0.0705,0.001 0.10594,0.002 -0.0358,-0.0482 -0.11412,0.0226 -0.0744,-0.0181 0.0572,-0.0496 0.11762,-0.0952 0.17932,-0.13901 5.3e-4,0.006 0.002,0.006 0.003,0.007 0.004,-0.007 0.009,-0.011 0.015,-0.0119 0.005,-0.0107 0.0118,-0.023 0.0155,-0.0186 0.0204,0.0241 0.0374,0.051 0.0553,0.077 0.01,-0.009 0.0184,-0.019 0.0279,-0.0279 -0.002,-0.005 -0.003,-0.0103 -0.004,-0.0155 0.005,0.009 0.004,0.008 0.007,0.0124 0.0573,-0.0527 0.11451,-0.10554 0.17002,-0.1602 0.0675,0.0609 0.0931,0.0761 0.093,0.0925 0.002,-0.001 0.008,-0.005 0.0109,-0.006 0.126,-0.0636 0.27593,-0.1256 0.41806,-0.16588 0.0847,-0.048 0.17055,-0.094 0.2589,-0.1354 0.0371,-0.0173 0.0754,-0.0313 0.11317,-0.047 0.0273,-0.008 0.0542,-0.019 0.0822,-0.0238 0.0116,-0.002 0.0361,-0.004 0.061,-0.004 l -5.3e-4,5.2e-4 v 5.3e-4 l -5.3e-4,0.001 c 0.0249,8e-4 0.0504,0.005 0.063,0.015 0.0206,0.0169 0.0464,0.0389 0.0455,0.0656 -7.9e-4,0.0253 -0.007,0.0405 -0.016,0.0522 0.004,-0.001 0.008,-0.003 0.0119,-0.004 0.002,-0.002 0.004,-0.007 0.006,-0.005 8e-4,5.3e-4 10e-4,0.002 0.002,0.003 0.004,-8e-4 0.006,-0.003 0.0103,-0.004 8e-4,-1.1e-4 0.002,1.2e-4 0.003,0 0,0 5.3e-4,-5.3e-4 5.3e-4,-5.3e-4 0.0219,-0.014 0.0414,-0.0385 0.0605,-0.0558 0.0149,-0.0146 0.0263,-0.0276 0.0444,-0.0382 0.0372,-0.0218 0.0819,-0.0217 0.12351,-0.0217 0.0158,0.003 0.032,0.004 0.0475,0.008 0.0508,0.0142 0.0882,0.0587 0.14159,0.0667 0.002,5.3e-4 0.004,0.001 0.007,0.002 0.005,-0.002 0.006,-0.005 0.016,-0.009 0.008,-5.3e-4 0.0136,-5.3e-4 0.0196,-0.001 0.0261,-0.0161 0.0317,-0.0174 0.0615,-0.0315 0.045,-0.0238 0.0942,-0.0313 0.14367,-0.0351 0.01,-0.003 0.0193,-0.006 0.03,-0.009 0.0415,-0.009 0.0793,-0.008 0.11782,-5.3e-4 0.0128,-0.005 0.0259,-0.009 0.0388,-0.0139 0.0181,2.7e-4 0.0361,0.003 0.0543,0.003 0.003,-0.003 0.006,-0.006 0.008,-0.007 0.016,-0.0163 0.0325,-0.032 0.0486,-0.0481 0.006,-0.006 0.0119,-0.0125 0.0181,-0.0186 -0.002,0.0113 -0.003,0.0124 -0.004,0.0202 0.006,-1e-5 0.0123,0.002 0.0186,0.003 0.005,-0.008 0.009,-0.0149 0.0196,-0.032 0.0183,-0.0128 0.0453,-0.0419 0.0708,-0.0357 z m 0.12713,0.21601 c 0.003,-0.003 0.004,-0.005 0.007,-0.008 -0.004,0.002 -0.008,0.003 -0.0119,0.005 0.001,2.6e-4 0.003,0.003 0.004,0.003 z m 0.54415,-0.13694 c -0.002,0.004 -0.002,0.0122 0.002,0.0129 0.004,8e-4 0.002,-0.009 -5.3e-4,-0.0129 z m 4.87257,0.007 -5.3e-4,5.3e-4 c 0.002,0.005 0.004,0.009 0.006,0.0134 0.002,0.002 0.003,0.005 0.005,0.007 -0.004,-0.008 -0.007,-0.0128 -0.0104,-0.0207 z m -5.80533,0.0419 c -0.002,5.3e-4 -0.004,0.002 -0.007,0.003 7.9e-4,-7e-5 0.002,9e-5 0.003,0 0.001,-1e-4 0.006,-0.003 0.004,-0.003 z m -0.33434,0.0765 c -0.0392,-0.003 -0.0312,-0.001 -0.0233,0.002 0.002,-3e-5 0.006,-1.9e-4 0.008,0 0.005,-2.6e-4 0.0104,-0.001 0.0155,-0.002 z m 6.00273,0.0424 -0.001,5.3e-4 v 5.2e-4 l 0.002,0.002 c 5.3e-4,8e-4 2.6e-4,-0.001 0.002,0.002 -0.001,-0.001 -0.002,-0.003 -0.003,-0.005 z m -6.612,0.0269 5.3e-4,5.3e-4 c 0.002,0.002 0.004,0.003 0.006,0.005 10e-4,0.001 0.002,-0.005 -5.3e-4,-0.005 -0.002,-5.3e-4 -0.004,-1.3e-4 -0.006,-5.3e-4 z m 0.0455,0.0176 c -0.005,0.002 -0.009,0.005 -0.0145,0.007 -0.001,0.003 8e-4,0.004 5.3e-4,0.006 8e-4,-5.3e-4 0.002,-0.001 0.003,-0.002 0.002,-0.004 0.008,-0.007 0.0114,-0.0114 z m 1.79575,0.005 c -0.0103,-0.002 -0.0293,0.0111 -0.0171,0.0191 0.002,-0.003 0.002,-0.001 0.004,-0.004 0.008,-0.01 0.01,-0.0113 0.0129,-0.015 z m -3.18379,0.31574 c 5.3e-4,0.005 -5.2e-4,0.006 0.001,0.0124 0.007,0.0288 0.001,0.0169 0.015,0.0377 -0.005,-0.0168 -0.0133,-0.0329 -0.016,-0.0501 z m 8.72609,0.48937 v 5.3e-4 5.3e-4 5.3e-4 c 0.007,0.006 0.0143,0.0113 0.0217,0.0165 0.004,0.003 -0.006,-0.008 -0.0103,-0.0119 -0.004,-0.002 -0.007,-0.004 -0.0114,-0.006 z m -0.0274,0.39895 v 5.2e-4 5.3e-4 l 5.3e-4,5.3e-4 c -0.0144,0.0199 -0.0267,0.041 -0.0243,0.0687 7e-5,8e-4 0.001,0.002 0.001,0.003 0.0143,-0.0189 0.0303,-0.0374 0.046,-0.0553 -0.007,-0.004 -0.0141,-0.0125 -0.0212,-0.017 -5.3e-4,-3e-5 -8e-4,-5.3e-4 -0.002,-0.001 z m 0.28009,0.005 v 0.001 l -5.3e-4,5.3e-4 v 5.3e-4 c -0.003,2.6e-4 -0.006,7.9e-4 -0.009,0.001 0.007,0.0138 0.0116,0.0286 0.0181,0.0429 0.015,0.0191 0.0313,0.0374 0.0465,0.0563 -0.0124,-0.035 -0.0287,-0.0694 -0.0496,-0.0987 -10e-4,-0.002 -0.003,-0.002 -0.005,-0.004 z m -0.28112,0.12454 c 0.002,0.003 0.002,0.007 0.004,0.009 0.002,0.003 0.005,0.005 0.007,0.008 5.3e-4,-0.002 0.002,-0.003 0.002,-0.005 -0.004,-0.004 -0.009,-0.008 -0.0129,-0.0124 z m 0.11937,0.21653 c 0.0227,0.0491 0.0566,0.0933 0.0982,0.12505 0.002,0.001 0.004,3e-5 0.005,0.002 -0.003,-0.008 -0.008,-0.0141 -0.0124,-0.0284 -0.003,-0.01 -0.005,-0.0193 -0.008,-0.0289 -0.001,-0.002 -0.004,-0.006 -0.002,-0.006 0.002,-2.6e-4 0.003,2e-5 0.006,-5.3e-4 -0.0116,-0.0166 -0.0231,-0.033 -0.0346,-0.0496 -0.0152,-0.003 -0.0314,-0.005 -0.0455,-0.0114 -0.003,-8e-4 -0.005,-0.001 -0.007,-0.003 z m 1.048,0.6935 v 0.001 c 7.9e-4,0.0388 -0.008,0.0423 -0.0124,0.0429 0.004,4e-5 0.007,-8e-4 0.0108,-5.3e-4 0.004,2.1e-4 0.009,-0.001 0.0129,0.002 0.0112,-0.003 0.0222,-0.006 0.0315,-0.009 0.004,-0.001 0.008,-0.002 0.0124,-0.003 -0.0211,-0.0161 -0.0371,-0.0294 -0.0553,-0.0336 z m -0.60152,0.0274 v 5.3e-4 c 2.7e-4,-5e-5 5.3e-4,2e-4 10e-4,0 -5.3e-4,-2.6e-4 -5.3e-4,-2.4e-4 -10e-4,-5.3e-4 z m 0.6072,0.0191 c -0.01,0.004 -0.0205,0.008 -0.0171,0.006 0.005,-0.003 0.0127,-0.004 0.0196,-0.006 -0.002,5.3e-4 -10e-4,-8e-5 -0.002,0 z m 0.21394,0.19069 c -2.6e-4,5.3e-4 -0.001,2e-5 -0.002,5.3e-4 8e-5,1.3e-4 0.002,-5.3e-4 0.002,-5.3e-4 z m -0.004,0.002 c -0.002,1.8e-4 -0.004,8e-4 -0.008,0.003 -0.0134,0.006 -0.027,0.009 -0.0408,0.0134 0.0126,-0.002 0.0246,-0.005 0.0372,-0.007 0.005,-0.004 0.008,-0.006 0.0114,-0.009 z m -0.23874,0.18759 -5.3e-4,0.003 -5.3e-4,0.001 c 0.005,0.006 0.003,0.005 0.008,0.0103 0.0242,-0.002 0.0486,-0.004 0.0729,-0.007 v 5.3e-4 c -0.002,-0.003 -0.007,-0.01 0.003,0.0124 0.0562,0.13084 0.0871,0.11835 0.0222,0.12557 0.01,0.0218 0.0202,0.0433 0.03,0.0651 0.006,0.005 0.0121,0.009 0.0171,0.015 0.0655,0.0749 0.0995,0.16916 0.13229,0.26148 0.003,0.004 0.005,0.008 0.008,0.0124 0.004,0.007 0.005,0.0116 0.007,0.0165 0.005,5.3e-4 0.004,0.004 0.0202,0.0284 0.022,0.0336 0.0373,0.07 0.0527,0.10697 0.009,0.0275 0.0252,0.0527 0.0444,0.0749 0.003,0.002 0.003,0.004 0.005,0.006 0.005,0.006 0.01,0.0125 0.0155,0.0176 0.005,0.002 0.0171,0.008 0.0139,0.0109 -0.0284,0.0278 -0.0302,0.0304 -0.0439,0.0455 -0.008,0.0227 -0.0152,0.0338 -0.0227,0.0434 0.0234,0.0288 0.0536,0.0647 0.0667,0.0775 0.009,0.0251 0.0129,0.0331 0.0139,0.0408 0.001,0.003 0.002,0.004 0.003,0.006 0.0121,0.0217 0.0192,0.0454 0.0274,0.0687 0.0386,-0.0198 0.0815,-0.0282 0.12403,-0.0155 0.0242,0.007 0.0462,0.0215 0.0692,0.032 0.0411,0.0267 0.0834,0.0565 0.10542,0.10231 0.0129,0.028 0.0161,0.0602 0.0191,0.0904 -0.003,0.0379 0.004,0.0784 -0.005,0.11575 -0.005,0.0217 -0.0123,0.0312 -0.0181,0.0424 -1e-4,2.6e-4 1e-4,7.9e-4 0,0.001 -5.2e-4,0.001 -0.001,0.003 -0.002,0.004 -0.004,0.007 -0.005,0.0138 -0.01,0.0243 -0.002,0.002 -0.004,0.004 -0.005,0.006 -0.008,0.0156 -0.0197,0.0282 -0.0331,0.0393 0.0165,0.0177 0.0352,0.0333 0.0501,0.0532 0.009,0.012 0.0168,0.0251 0.0248,0.0377 0.003,0.005 0.007,0.009 0.008,0.0145 0,0.002 -0.003,-0.001 -0.005,-0.002 0.042,0.0419 0.0385,0.0718 0.0315,0.12403 -2.7e-4,-0.001 -0.001,-0.006 -0.001,-0.005 -2.2e-4,0.002 -2.5e-4,0.004 -5.3e-4,0.006 0.0306,0.007 0.0611,0.0139 0.0873,0.03 0.01,0.006 2.1e-4,0.0233 -0.004,0.0346 -7e-5,2.7e-4 -0.001,2.1e-4 -0.001,5.3e-4 7.9e-4,0 2.6e-4,0.001 0.001,0.001 -0.0116,3e-5 -0.0329,0.002 -0.0569,0.004 0.012,0.005 0.0234,0.0113 0.0351,0.0171 0.001,-5.2e-4 0.002,-5.2e-4 0.003,-0.002 0.007,-0.004 0.009,-0.005 0.0124,-0.007 -0.008,0.0236 -0.0213,0.0518 -0.031,0.0729 0.0144,0.01 0.0214,0.0253 0.0222,0.046 0.005,-0.003 0.0103,-0.007 0.016,-0.0222 0.001,-0.002 0.004,-0.0109 0.003,-0.007 -0.009,0.0335 -0.0194,0.0668 -0.0315,0.0992 -0.007,0.018 -0.0142,0.0359 -0.0212,0.0537 -7.9e-4,-6e-5 -0.002,8e-5 -0.003,0 -10e-4,0.004 -0.002,0.008 -0.003,0.0119 l -10e-4,-5.3e-4 c -0.005,0.0291 -0.017,0.0488 -0.0305,0.0625 -0.008,0.0203 -0.0162,0.0395 -0.0269,0.0682 h -5.3e-4 c -0.0311,0.0835 -0.0959,0.092 -0.12557,0.0532 -0.0366,-0.007 -0.0636,-0.0515 -0.0408,-0.12144 0.009,-0.0288 0.0189,-0.0575 0.0279,-0.0863 0.007,-0.0222 0.0142,-0.0448 0.0212,-0.0672 0.002,-0.009 0.004,-0.0185 0.007,-0.0279 v -0.001 c 0,0 5.3e-4,-5.3e-4 5.3e-4,-5.3e-4 2.6e-4,-8e-4 2.6e-4,-0.002 5.3e-4,-0.003 -0.0209,0.008 -0.0314,0.008 -0.0439,-0.0238 -10e-4,-0.003 -10e-4,-0.007 -0.003,-0.0103 -0.005,-0.0109 -0.0234,-0.0124 -0.0274,-0.0238 -0.0256,-0.0275 -0.0511,-0.0576 -0.0491,-0.0982 -1.5e-4,-0.003 0.001,-0.006 0.001,-0.01 -0.004,-0.006 -0.0103,-0.01 -0.0134,-0.0165 -0.0167,-0.0311 -0.029,-0.063 -0.0331,-0.0982 -0.003,-0.002 -0.005,-0.005 -0.007,-0.008 -0.0137,-0.0174 -0.0199,-0.0392 -0.0279,-0.0594 -0.009,-0.0195 -0.0175,-0.039 -0.0274,-0.0579 -0.0201,-0.005 -0.0399,-0.01 -0.062,-0.0155 -0.0355,-0.0166 -0.0777,-0.0272 -0.092,-0.0713 -0.0178,-0.0547 2.7e-4,-0.0677 0.0134,-0.11007 0.004,-0.0115 0.006,-0.0234 0.009,-0.0351 -0.0104,-0.0124 -0.0182,-0.0272 -0.0305,-0.0377 -0.002,-0.002 -0.002,-0.005 -0.004,-0.007 -0.018,-0.0208 -0.0362,-0.0414 -0.0532,-0.0631 -0.0167,-0.0213 -0.0814,-0.10645 -0.0894,-0.14521 -0.009,-0.0455 -9e-5,-0.0672 0.0212,-0.0811 0,-0.008 -0.001,-0.0166 -0.001,-0.0279 -0.001,-0.0139 -5.3e-4,-0.0279 -0.003,-0.0418 -0.001,-0.009 -0.001,-0.005 -0.002,-0.0119 -0.0117,-0.0259 -0.0275,-0.0599 -0.0403,-0.0863 -0.008,-0.008 -0.0153,-0.0165 -0.0233,-0.0243 -0.0467,-0.0462 -0.0621,-0.0492 -0.10283,-0.10542 -0.0393,-0.0543 -0.0671,-0.11521 -0.093,-0.17725 -10e-4,-10e-4 -0.002,-0.002 -0.004,-0.003 -0.049,-0.0368 -0.0958,-0.0767 -0.13384,-0.12505 -0.007,-0.0153 -0.0171,-0.0295 -0.0202,-0.046 0,-1.7e-4 0.002,-0.0101 0.002,-0.0139 -0.001,-0.006 -0.003,-0.0229 -0.002,-0.008 -7e-5,-0.009 -5.3e-4,-0.018 0,-0.0269 0.001,-0.0175 0.009,-0.0336 0.0155,-0.0501 -0.097,0.003 -0.11765,-0.10377 -0.001,-0.14004 0.0266,-0.008 0.0535,-0.0167 0.0801,-0.0248 0.0371,-0.0113 0.0737,-0.0246 0.11162,-0.0331 0.009,-0.002 0.0207,-0.0103 0.0269,-0.004 z m 0.70848,1.92443 c 2.7e-4,2.5e-4 8e-4,2.6e-4 0.002,5.3e-4 0.002,-0.003 0.006,-0.002 0.009,-0.004 l -5.3e-4,-5.3e-4 c -0.002,0.001 -0.008,0.003 -0.0103,0.004 z m -0.58497,-1.92133 c 0.0234,0.002 0.007,0.0269 0.0403,0.13023 0.0311,0.0966 -0.0556,-0.0758 -0.0832,-0.12558 0.001,-1.2e-4 0.002,-1.6e-4 0.003,-5.3e-4 0.0199,-0.002 0.032,-0.005 0.0398,-0.004 z m 0.33951,0.98754 c -5.3e-4,0.003 2.2e-4,0.003 -5.3e-4,0.007 2.2e-4,-7.9e-4 0.001,-0.001 0.001,-0.002 0,-0.002 -2.4e-4,-0.003 -5.3e-4,-0.005 z m 0.13798,0.78703 c 2.1e-4,0.002 2.4e-4,2.1e-4 5.3e-4,0.003 0.002,0.001 0.003,0.002 0.005,0.004 -0.002,-0.002 -0.003,-0.004 -0.005,-0.006 z" />
    </clipPath>
    <marker
       id="marker-arrow-1.0616-3"
       orient="auto-start-reverse"
       refY="0"
       refX="0"
       markerHeight="1.690"
       markerWidth="0.911">
      <g
         transform="scale(1.343431298668676)"
         id="g85">
        <path
           d="M -1.55415,2.0722 C -1.42464,1.29512 0,0.1295 0.38852,0 0,-0.1295 -1.42464,-1.29512 -1.55415,-2.0722"
           style="fill:none;stroke:#000000;stroke-width:0.6;stroke-linecap:round;stroke-linejoin:round;stroke-miterlimit:10;stroke-dasharray:none;stroke-opacity:1"
           inkscape:connector-curvature="0"
           id="path83" />
      </g>
    </marker>
  </defs>
  <sodipodi:namedview
     id="base"
     pagecolor="#ffffff"
     bordercolor="#666666"
     borderopacity="1.0"
     inkscape:pageopacity="0.0"
     inkscape:pageshadow="2"
     inkscape:zoom="2.1373119"
     inkscape:cx="389.23664"
     inkscape:cy="218.2553"
     inkscape:document-units="mm"
     inkscape:current-layer="layer1"
     showgrid="false"
     showborder="true"
     width="200mm"
     showguides="true"
     inkscape:guide-bbox="true"
     inkscape:window-width="1875"
     inkscape:window-height="1053"
     inkscape:window-x="45"
     inkscape:window-y="27"
     inkscape:window-maximized="1"
     inkscape:document-rotation="0">
    <inkscape:grid
       type="xygrid"
       id="grid815"
       units="mm"
       spacingx="10"
       spacingy="10"
       empspacing="4"
       dotted="false" />
  </sodipodi:namedview>
  <metadata
     id="metadata5">
    <rdf:RDF>
      <cc:Work
         rdf:about="">
        <dc:format>image/svg+xml</dc:format>
        <dc:type
           rdf:resource="http://purl.org/dc/dcmitype/StillImage" />
        <dc:title />
      </cc:Work>
    </rdf:RDF>
  </metadata>
  <g
     inkscape:label="Layer 1"
     inkscape:groupmode="layer"
     id="layer1"
     transform="translate(0,-177)">
    <g
       id="g53"
       transform="translate(14.451227,6.4037074)"
       style="fill:none;fill-opacity:1;marker-end:url(#marker-arrow-1.0616);marker-start:none;stroke:black;stroke-dasharray:0.28088167,0.70220417;stroke-opacity:1;stroke-width:0.28088167">
      <path
         style="fill:none;fill-opacity:1;stroke:black;stroke-width:0.28088167;stroke-linecap:butt;stroke-linejoin:miter;stroke-dasharray:0.28088167,0.70220417;stroke-opacity:1;marker-start:none;marker-end:url(#marker-arrow-1.0616)"
         d="M 49.897987,222.24876 C 162.67596,214.81777 162.19989,209.07105 162.19989,209.07105"
         id="path28" />
      <path
         style="fill:none;fill-opacity:1;stroke:black;stroke-width:0.28088167;stroke-linecap:butt;stroke-linejoin:miter;stroke-dasharray:0.28088167,0.70220417;stroke-opacity:1;marker-start:none;marker-end:url(#marker-arrow-1.0616)"
         d="m 60.993776,239.45057 c 90.238254,-6.77543 96.400844,0.83038 96.400844,0.83038"
         id="path32" />
      <path
         style="fill:none;fill-opacity:1;stroke:black;stroke-width:0.28088167;stroke-linecap:butt;stroke-linejoin:miter;stroke-dasharray:0.28088167,0.70220417;stroke-opacity:1;marker-start:none;marker-end:url(#marker-arrow-1.0616)"
         d="M 54.783532,230.04571 C 164.21785,225.14008 153.69973,220.1369 164.28271,225.36172"
         id="path154" />
    </g>
    <g
       id="g1133"
       transform="matrix(0.43669392,0.07592576,-0.05653928,0.48661389,83.078202,114.74865)"
       style="stroke-width:2.14771">
      <path
         style="fill:none;stroke:#000000;stroke-width:0.326545px;stroke-linecap:butt;stroke-linejoin:miter;stroke-opacity:1"
         d="m 112.38654,230.17803 c -1.65912,-7.01584 -6.62792,-5.8277 -1.60288,-6.9844 5.025,-1.15671 5.17036,-2.54893 6.10367,-0.72338 0.93331,1.82558 3.53538,5.64007 2.83527,5.85339 -0.70013,0.21327 -7.0304,0.91973 -7.33606,1.85439 z"
         id="path52-3"
         clip-path="url(#clipPath878)" />
      <path
         style="fill:none;stroke:#000000;stroke-width:0.326545px;stroke-linecap:butt;stroke-linejoin:miter;stroke-opacity:1"
         d="m 110.88491,233.15305 c -1.65912,-7.01584 -6.62792,-5.8277 -1.60288,-6.9844 5.025,-1.15671 5.17036,-2.54893 6.10367,-0.72338 0.93331,1.82558 3.53538,5.64007 2.83527,5.85339 -0.70013,0.21327 -7.0304,0.91973 -7.33606,1.85439 z"
         id="path52-3-6"
         clip-path="url(#clipPath1123)" />
      <path
         style="fill:none;stroke:#000000;stroke-width:0.568248px;stroke-linecap:butt;stroke-linejoin:miter;stroke-opacity:1"
         d="m 112.38531,230.24805 c -1.48827,2.94197 -1.5431,2.93514 -1.5431,2.93514"
         id="path892" />
      <path
         style="fill:none;stroke:#000000;stroke-width:0.568248px;stroke-linecap:butt;stroke-linejoin:miter;stroke-opacity:1"
         d="m 108.56178,223.99453 c -1.41185,2.87347 -1.51268,2.94339 -1.51268,2.94339"
         id="path894" />
      <path
         style="fill:none;stroke:#000000;stroke-width:0.568248px;stroke-linecap:butt;stroke-linejoin:miter;stroke-opacity:1"
         d="m 119.79138,228.30476 c -1.54822,2.93646 -1.52468,2.96784 -1.52468,2.96784"
         id="path896" />
    </g>
    <text
       style="font-size:2.64583px;font-family:'Iosevka Term';-inkscape-font-specification:'Iosevka Term, Normal';fill:#000000;fill-opacity:1;stroke:none;stroke-width:0.264583"
       xml:space="preserve"
       id="text100"
       y="242.2681"
       x="117.10162"
       inkscape:transform-center-x="-1.0787422"
       inkscape:transform-center-y="-1.0833588"><tspan
         sodipodi:role="line"
         id="tspan98"
         x="117.10162"
         y="242.2681"
         style="stroke-width:0.264583">$dV$</tspan></text>
  </g>
</svg>
